<mxfile host="app.diagrams.net" agent="Mozilla/5.0 (Windows NT 10.0; Win64; x64) AppleWebKit/537.36 (KHTML, like Gecko) Chrome/135.0.0.0 Safari/537.36" version="26.2.13">
  <diagram name="Page-1" id="pj_pNZf67aUgRGZx96ZQ">
    <mxGraphModel dx="1610" dy="1511" grid="1" gridSize="10" guides="1" tooltips="1" connect="1" arrows="1" fold="1" page="1" pageScale="1" pageWidth="850" pageHeight="1100" math="0" shadow="0">
      <root>
        <mxCell id="0" />
        <mxCell id="1" parent="0" />
        <UserObject label="" plantUmlData="{&quot;data&quot;:&quot;@startuml\nleft to right direction\n\nactor \&quot;Police Officer\&quot; as PO\nactor \&quot;Car Owner\&quot; as CO\n\n\n    usecase \&quot;File Ticket\&quot; as U1\n    usecase \&quot;Resume Draft Ticket\&quot; as U2\n    usecase \&quot;Submit Ticket\&quot; as U3\n    \n    usecase \&quot;Report Stolen Car\&quot; as U5\n    \n    \n\n\nPO --&gt; U1\nU1 --&gt; U2 \nU1 --&gt; U3 \n\n\n\n\nCO --&gt; U5\n\n\n\n\n@enduml\n&quot;,&quot;format&quot;:&quot;svg&quot;}" id="8bzAcpJlCO16CAiFJlRz-1">
          <mxCell style="shape=image;noLabel=1;verticalAlign=top;aspect=fixed;imageAspect=0;image=data:image/svg+xml,PHN2ZyB4bWxucz0iaHR0cDovL3d3dy53My5vcmcvMjAwMC9zdmciIHhtbG5zOnhsaW5rPSJodHRwOi8vd3d3LnczLm9yZy8xOTk5L3hsaW5rIiBjb250ZW50U3R5bGVUeXBlPSJ0ZXh0L2NzcyIgZGF0YS1kaWFncmFtLXR5cGU9IkRFU0NSSVBUSU9OIiBoZWlnaHQ9IjIwOXB4IiBwcmVzZXJ2ZUFzcGVjdFJhdGlvPSJub25lIiBzdHlsZT0id2lkdGg6NTU2cHg7aGVpZ2h0OjIwOXB4O2JhY2tncm91bmQ6I0ZGRkZGRjsiIHZlcnNpb249IjEuMSIgdmlld0JveD0iMCAwIDU1NiAyMDkiIHdpZHRoPSI1NTZweCIgem9vbUFuZFBhbj0ibWFnbmlmeSI+PGRlZnMvPjxnPjwhLS1lbnRpdHkgUE8tLT48ZyBjbGFzcz0iZW50aXR5IiBkYXRhLWVudGl0eT0iUE8iIGRhdGEtc291cmNlLWxpbmU9IjMiIGRhdGEtdWlkPSJlbnQwMDAyIiBpZD0iZW50aXR5X1BPIj48ZWxsaXBzZSBjeD0iNTUiIGN5PSIxMjQiIGZpbGw9IiNGMUYxRjEiIHJ4PSI4IiByeT0iOCIgc3R5bGU9InN0cm9rZTojMTgxODE4O3N0cm9rZS13aWR0aDowLjU7Ii8+PHBhdGggZD0iTTU1LDEzMiBMNTUsMTU5IE00MiwxNDAgTDY4LDE0MCBNNTUsMTU5IEw0MiwxNzQgTTU1LDE1OSBMNjgsMTc0IiBmaWxsPSJub25lIiBzdHlsZT0ic3Ryb2tlOiMxODE4MTg7c3Ryb2tlLXdpZHRoOjAuNTsiLz48dGV4dCBmaWxsPSIjMDAwMDAwIiBmb250LWZhbWlseT0ic2Fucy1zZXJpZiIgZm9udC1zaXplPSIxNCIgbGVuZ3RoQWRqdXN0PSJzcGFjaW5nIiB0ZXh0TGVuZ3RoPSI5OCIgeD0iNiIgeT0iMTg4LjczNDQiPlBvbGljZSBPZmZpY2VyPC90ZXh0PjwvZz48IS0tZW50aXR5IENPLS0+PGcgY2xhc3M9ImVudGl0eSIgZGF0YS1lbnRpdHk9IkNPIiBkYXRhLXNvdXJjZS1saW5lPSI0IiBkYXRhLXVpZD0iZW50MDAwMyIgaWQ9ImVudGl0eV9DTyI+PGVsbGlwc2UgY3g9IjU1IiBjeT0iMTQiIGZpbGw9IiNGMUYxRjEiIHJ4PSI4IiByeT0iOCIgc3R5bGU9InN0cm9rZTojMTgxODE4O3N0cm9rZS13aWR0aDowLjU7Ii8+PHBhdGggZD0iTTU1LDIyIEw1NSw0OSBNNDIsMzAgTDY4LDMwIE01NSw0OSBMNDIsNjQgTTU1LDQ5IEw2OCw2NCIgZmlsbD0ibm9uZSIgc3R5bGU9InN0cm9rZTojMTgxODE4O3N0cm9rZS13aWR0aDowLjU7Ii8+PHRleHQgZmlsbD0iIzAwMDAwMCIgZm9udC1mYW1pbHk9InNhbnMtc2VyaWYiIGZvbnQtc2l6ZT0iMTQiIGxlbmd0aEFkanVzdD0ic3BhY2luZyIgdGV4dExlbmd0aD0iNjMiIHg9IjIzLjUiIHk9Ijc4LjczNDQiPkNhciBPd25lcjwvdGV4dD48L2c+PGcgY2xhc3M9ImVudGl0eSIgZGF0YS1lbnRpdHk9IlUxIiBkYXRhLXNvdXJjZS1saW5lPSI3IiBkYXRhLXVpZD0iZW50MDAwNCIgaWQ9ImVudGl0eV9VMSI+PGVsbGlwc2UgY3g9IjI0Mi42Njg1IiBjeT0iMTUzLjEzMzciIGZpbGw9IiNGMUYxRjEiIHJ4PSI2MS4xNjg1IiByeT0iMTQuNjMzNyIgc3R5bGU9InN0cm9rZTojMTgxODE4O3N0cm9rZS13aWR0aDowLjU7Ii8+PHRleHQgZmlsbD0iIzAwMDAwMCIgZm9udC1mYW1pbHk9InNhbnMtc2VyaWYiIGZvbnQtc2l6ZT0iMTQiIGxlbmd0aEFkanVzdD0ic3BhY2luZyIgdGV4dExlbmd0aD0iNzciIHg9IjIwNC4xNjg1IiB5PSIxNTYuODc1OSI+RmlsZSBUaWNrZXQ8L3RleHQ+PC9nPjxnIGNsYXNzPSJlbnRpdHkiIGRhdGEtZW50aXR5PSJVMiIgZGF0YS1zb3VyY2UtbGluZT0iOCIgZGF0YS11aWQ9ImVudDAwMDUiIGlkPSJlbnRpdHlfVTIiPjxlbGxpcHNlIGN4PSI0NjUuNjA2MiIgY3k9IjExNy44MjEyIiBmaWxsPSIjRjFGMUYxIiByeD0iODQuNjA2MiIgcnk9IjE5LjMyMTIiIHN0eWxlPSJzdHJva2U6IzE4MTgxODtzdHJva2Utd2lkdGg6MC41OyIvPjx0ZXh0IGZpbGw9IiMwMDAwMDAiIGZvbnQtZmFtaWx5PSJzYW5zLXNlcmlmIiBmb250LXNpemU9IjE0IiBsZW5ndGhBZGp1c3Q9InNwYWNpbmciIHRleHRMZW5ndGg9IjEzMyIgeD0iMzk5LjEwNjIiIHk9IjEyMS41NjM0Ij5SZXN1bWUgRHJhZnQgVGlja2V0PC90ZXh0PjwvZz48ZyBjbGFzcz0iZW50aXR5IiBkYXRhLWVudGl0eT0iVTMiIGRhdGEtc291cmNlLWxpbmU9IjkiIGRhdGEtdWlkPSJlbnQwMDA2IiBpZD0iZW50aXR5X1UzIj48ZWxsaXBzZSBjeD0iNDY1LjY4MzQiIGN5PSIxODguMjM2NyIgZmlsbD0iI0YxRjFGMSIgcng9IjY2LjY4MzQiIHJ5PSIxNS43MzY3IiBzdHlsZT0ic3Ryb2tlOiMxODE4MTg7c3Ryb2tlLXdpZHRoOjAuNTsiLz48dGV4dCBmaWxsPSIjMDAwMDAwIiBmb250LWZhbWlseT0ic2Fucy1zZXJpZiIgZm9udC1zaXplPSIxNCIgbGVuZ3RoQWRqdXN0PSJzcGFjaW5nIiB0ZXh0TGVuZ3RoPSI5MSIgeD0iNDIwLjE4MzQiIHk9IjE5MS45Nzg5Ij5TdWJtaXQgVGlja2V0PC90ZXh0PjwvZz48ZyBjbGFzcz0iZW50aXR5IiBkYXRhLWVudGl0eT0iVTUiIGRhdGEtc291cmNlLWxpbmU9IjExIiBkYXRhLXVpZD0iZW50MDAwNyIgaWQ9ImVudGl0eV9VNSI+PGVsbGlwc2UgY3g9IjI0Mi40NTU4IiBjeT0iNDMuMDkxMiIgZmlsbD0iI0YxRjFGMSIgcng9Ijc4LjQ1NTgiIHJ5PSIxOC4wOTEyIiBzdHlsZT0ic3Ryb2tlOiMxODE4MTg7c3Ryb2tlLXdpZHRoOjAuNTsiLz48dGV4dCBmaWxsPSIjMDAwMDAwIiBmb250LWZhbWlseT0ic2Fucy1zZXJpZiIgZm9udC1zaXplPSIxNCIgbGVuZ3RoQWRqdXN0PSJzcGFjaW5nIiB0ZXh0TGVuZ3RoPSIxMTkiIHg9IjE4Mi45NTU4IiB5PSI0Ni44MzMzIj5SZXBvcnQgU3RvbGVuIENhcjwvdGV4dD48L2c+PCEtLWxpbmsgUE8gdG8gVTEtLT48ZyBjbGFzcz0ibGluayIgZGF0YS1lbnRpdHktMT0iUE8iIGRhdGEtZW50aXR5LTI9IlUxIiBkYXRhLXNvdXJjZS1saW5lPSIxNiIgZGF0YS11aWQ9ImxuazgiIGlkPSJsaW5rX1BPX1UxIj48cGF0aCBkPSJNMTA0LjI1LDE1MyBDMTI3Ljc2LDE1MyAxNTAuMjcsMTUzIDE3NS4yLDE1MyIgZmlsbD0ibm9uZSIgaWQ9IlBPLXRvLVUxIiBzdHlsZT0ic3Ryb2tlOiMxODE4MTg7c3Ryb2tlLXdpZHRoOjE7Ii8+PHBvbHlnb24gZmlsbD0iIzE4MTgxOCIgcG9pbnRzPSIxODEuMiwxNTMsMTcyLjIsMTQ5LDE3Ni4yLDE1MywxNzIuMiwxNTcsMTgxLjIsMTUzIiBzdHlsZT0ic3Ryb2tlOiMxODE4MTg7c3Ryb2tlLXdpZHRoOjE7Ii8+PC9nPjwhLS1saW5rIFUxIHRvIFUyLS0+PGcgY2xhc3M9ImxpbmsiIGRhdGEtZW50aXR5LTE9IlUxIiBkYXRhLWVudGl0eS0yPSJVMiIgZGF0YS1zb3VyY2UtbGluZT0iMTciIGRhdGEtdWlkPSJsbms5IiBpZD0ibGlua19VMV9VMiI+PHBhdGggZD0iTTI5My42NSwxNDUuMDYgQzMyMy43LDE0MC4zIDM1Ni40MjQsMTM1LjExOTQgMzg5LjM1NCwxMjkuODk5NCIgZmlsbD0ibm9uZSIgaWQ9IlUxLXRvLVUyIiBzdHlsZT0ic3Ryb2tlOiMxODE4MTg7c3Ryb2tlLXdpZHRoOjE7Ii8+PHBvbHlnb24gZmlsbD0iIzE4MTgxOCIgcG9pbnRzPSIzOTUuMjgsMTI4Ljk2LDM4NS43NjQ3LDEyNi40MTg0LDM5MC4zNDE3LDEyOS43NDI4LDM4Ny4wMTcyLDEzNC4zMTk3LDM5NS4yOCwxMjguOTYiIHN0eWxlPSJzdHJva2U6IzE4MTgxODtzdHJva2Utd2lkdGg6MTsiLz48L2c+PCEtLWxpbmsgVTEgdG8gVTMtLT48ZyBjbGFzcz0ibGluayIgZGF0YS1lbnRpdHktMT0iVTEiIGRhdGEtZW50aXR5LTI9IlUzIiBkYXRhLXNvdXJjZS1saW5lPSIxOCIgZGF0YS11aWQ9ImxuazEwIiBpZD0ibGlua19VMV9VMyI+PHBhdGggZD0iTTI5My42NSwxNjAuOTQgQzMyOC4yOSwxNjYuNDMgMzY4LjQxMzgsMTcyLjc4MiA0MDMuOTgzOCwxNzguNDEyIiBmaWxsPSJub25lIiBpZD0iVTEtdG8tVTMiIHN0eWxlPSJzdHJva2U6IzE4MTgxODtzdHJva2Utd2lkdGg6MTsiLz48cG9seWdvbiBmaWxsPSIjMTgxODE4IiBwb2ludHM9IjQwOS45MSwxNzkuMzUsNDAxLjY0NiwxNzMuOTkyMiw0MDQuOTcxNSwxNzguNTY4Myw0MDAuMzk1MywxODEuODkzOCw0MDkuOTEsMTc5LjM1IiBzdHlsZT0ic3Ryb2tlOiMxODE4MTg7c3Ryb2tlLXdpZHRoOjE7Ii8+PC9nPjwhLS1saW5rIENPIHRvIFU1LS0+PGcgY2xhc3M9ImxpbmsiIGRhdGEtZW50aXR5LTE9IkNPIiBkYXRhLWVudGl0eS0yPSJVNSIgZGF0YS1zb3VyY2UtbGluZT0iMjMiIGRhdGEtdWlkPSJsbmsxMSIgaWQ9ImxpbmtfQ09fVTUiPjxwYXRoIGQ9Ik04Ni42Myw0MyBDMTA3LjczLDQzIDEzMC43Niw0MyAxNTcuOTksNDMiIGZpbGw9Im5vbmUiIGlkPSJDTy10by1VNSIgc3R5bGU9InN0cm9rZTojMTgxODE4O3N0cm9rZS13aWR0aDoxOyIvPjxwb2x5Z29uIGZpbGw9IiMxODE4MTgiIHBvaW50cz0iMTYzLjk5LDQzLDE1NC45OSwzOSwxNTguOTksNDMsMTU0Ljk5LDQ3LDE2My45OSw0MyIgc3R5bGU9InN0cm9rZTojMTgxODE4O3N0cm9rZS13aWR0aDoxOyIvPjwvZz48IS0tU1JDPVtOU3d4M2VDbTMwTkdGTHpublN1MFlCS0JMVFVXS1p1V0pLcVJEUDBnQ1VobERwcHdlNXZpc0tWTWpUR25zQzZSd3VybkNQdXE2cFM4ZUpHeFp3SHNyY1kyeEJoT1YwOExLQ2x0aUw4VXlaY2ktcWVBOEgxaDNBSEw4Mkc3T21hZGUtXzRpc1lweFZyOE9VbTlVd3pZWTUtTlJycXBkZGtwNVNLaV9qeXpkNlNxeDJtRFlFNE1NZHZmMzVYQmZFYmtZajljb3ZKWkNuUUo0QTlRSlZhMl0tLT48L2c+PC9zdmc+;" parent="1" vertex="1">
            <mxGeometry x="130" y="-809" width="556" height="209" as="geometry" />
          </mxCell>
        </UserObject>
        <UserObject label="" plantUmlData="{&#xa;  &quot;data&quot;: &quot;@startuml\nactor \&quot;Police Officer\&quot; as PO\nparticipant \&quot;Report Screen (UI)\&quot; as UI\nparticipant \&quot;System Logic (App)\&quot; as App\ndatabase \&quot;Police DB (Cars Table)\&quot; as DB\n\n== Stolen Car Reporting ==\n\nPO -&gt; UI: Select \&quot;Report Stolen Car\&quot;\nUI -&gt; App: Trigger stolen car report action\nApp -&gt; DB: UPDATE cars SET stolen = &#39;Yes&#39; WHERE license_plate = ?\nDB --&gt; App: Confirmation of update\nApp --&gt; UI: Show confirmation message\n\n@enduml\n&quot;,&#xa;  &quot;format&quot;: &quot;svg&quot;&#xa;}" id="8bzAcpJlCO16CAiFJlRz-9">
          <mxCell style="shape=image;noLabel=1;verticalAlign=top;aspect=fixed;imageAspect=0;image=data:image/svg+xml,PD94bWwgdmVyc2lvbj0iMS4wIiBlbmNvZGluZz0idXMtYXNjaWkiIHN0YW5kYWxvbmU9Im5vIj8+PHN2ZyB4bWxucz0iaHR0cDovL3d3dy53My5vcmcvMjAwMC9zdmciIHhtbG5zOnhsaW5rPSJodHRwOi8vd3d3LnczLm9yZy8xOTk5L3hsaW5rIiBjb250ZW50U3R5bGVUeXBlPSJ0ZXh0L2NzcyIgaGVpZ2h0PSIzNjBweCIgcHJlc2VydmVBc3BlY3RSYXRpbz0ibm9uZSIgc3R5bGU9IndpZHRoOjk4NHB4O2hlaWdodDozNjBweDtiYWNrZ3JvdW5kOiNGRkZGRkY7IiB2ZXJzaW9uPSIxLjEiIHZpZXdCb3g9IjAgMCA5ODQgMzYwIiB3aWR0aD0iOTg0cHgiIHpvb21BbmRQYW49Im1hZ25pZnkiPjxkZWZzLz48Zz48bGluZSBzdHlsZT0ic3Ryb2tlOiMxODE4MTg7c3Ryb2tlLXdpZHRoOjAuNTtzdHJva2UtZGFzaGFycmF5OjUuMCw1LjA7IiB4MT0iNTciIHgyPSI1NyIgeTE9Ijc5Ljk4NDQiIHkyPSIyODEuNDY4OCIvPjxsaW5lIHN0eWxlPSJzdHJva2U6IzE4MTgxODtzdHJva2Utd2lkdGg6MC41O3N0cm9rZS1kYXNoYXJyYXk6NS4wLDUuMDsiIHgxPSIyNTgiIHgyPSIyNTgiIHkxPSI3OS45ODQ0IiB5Mj0iMjgxLjQ2ODgiLz48bGluZSBzdHlsZT0ic3Ryb2tlOiMxODE4MTg7c3Ryb2tlLXdpZHRoOjAuNTtzdHJva2UtZGFzaGFycmF5OjUuMCw1LjA7IiB4MT0iNDk4LjUiIHgyPSI0OTguNSIgeTE9Ijc5Ljk4NDQiIHkyPSIyODEuNDY4OCIvPjxsaW5lIHN0eWxlPSJzdHJva2U6IzE4MTgxODtzdHJva2Utd2lkdGg6MC41O3N0cm9rZS1kYXNoYXJyYXk6NS4wLDUuMDsiIHgxPSI4OTEiIHgyPSI4OTEiIHkxPSI3OS45ODQ0IiB5Mj0iMjgxLjQ2ODgiLz48dGV4dCBmaWxsPSIjMDAwMDAwIiBmb250LWZhbWlseT0ic2Fucy1zZXJpZiIgZm9udC1zaXplPSIxNCIgbGVuZ3RoQWRqdXN0PSJzcGFjaW5nIiB0ZXh0TGVuZ3RoPSI5OCIgeD0iNSIgeT0iNzguMjM0NCI+UG9saWNlIE9mZmljZXI8L3RleHQ+PGVsbGlwc2UgY3g9IjU3IiBjeT0iMTMuNSIgZmlsbD0iI0UyRTJGMCIgcng9IjgiIHJ5PSI4IiBzdHlsZT0ic3Ryb2tlOiMxODE4MTg7c3Ryb2tlLXdpZHRoOjAuNTsiLz48cGF0aCBkPSJNNTcsMjEuNSBMNTcsNDguNSBNNDQsMjkuNSBMNzAsMjkuNSBNNTcsNDguNSBMNDQsNjMuNSBNNTcsNDguNSBMNzAsNjMuNSAiIGZpbGw9Im5vbmUiIHN0eWxlPSJzdHJva2U6IzE4MTgxODtzdHJva2Utd2lkdGg6MC41OyIvPjx0ZXh0IGZpbGw9IiMwMDAwMDAiIGZvbnQtZmFtaWx5PSJzYW5zLXNlcmlmIiBmb250LXNpemU9IjE0IiBsZW5ndGhBZGp1c3Q9InNwYWNpbmciIHRleHRMZW5ndGg9Ijk4IiB4PSI1IiB5PSIyOTMuNzAzMSI+UG9saWNlIE9mZmljZXI8L3RleHQ+PGVsbGlwc2UgY3g9IjU3IiBjeT0iMzAzLjk1MzEiIGZpbGw9IiNFMkUyRjAiIHJ4PSI4IiByeT0iOCIgc3R5bGU9InN0cm9rZTojMTgxODE4O3N0cm9rZS13aWR0aDowLjU7Ii8+PHBhdGggZD0iTTU3LDMxMS45NTMxIEw1NywzMzguOTUzMSBNNDQsMzE5Ljk1MzEgTDcwLDMxOS45NTMxIE01NywzMzguOTUzMSBMNDQsMzUzLjk1MzEgTTU3LDMzOC45NTMxIEw3MCwzNTMuOTUzMSAiIGZpbGw9Im5vbmUiIHN0eWxlPSJzdHJva2U6IzE4MTgxODtzdHJva2Utd2lkdGg6MC41OyIvPjxyZWN0IGZpbGw9IiNFMkUyRjAiIGhlaWdodD0iMjguOTg0NCIgcng9IjIuNSIgcnk9IjIuNSIgc3R5bGU9InN0cm9rZTojMTgxODE4O3N0cm9rZS13aWR0aDowLjU7IiB3aWR0aD0iMTQyIiB4PSIxODciIHk9IjUwIi8+PHRleHQgZmlsbD0iIzAwMDAwMCIgZm9udC1mYW1pbHk9InNhbnMtc2VyaWYiIGZvbnQtc2l6ZT0iMTQiIGxlbmd0aEFkanVzdD0ic3BhY2luZyIgdGV4dExlbmd0aD0iMTI4IiB4PSIxOTQiIHk9IjcwLjIzNDQiPlJlcG9ydCBTY3JlZW4gKFVJKTwvdGV4dD48cmVjdCBmaWxsPSIjRTJFMkYwIiBoZWlnaHQ9IjI4Ljk4NDQiIHJ4PSIyLjUiIHJ5PSIyLjUiIHN0eWxlPSJzdHJva2U6IzE4MTgxODtzdHJva2Utd2lkdGg6MC41OyIgd2lkdGg9IjE0MiIgeD0iMTg3IiB5PSIyODAuNDY4OCIvPjx0ZXh0IGZpbGw9IiMwMDAwMDAiIGZvbnQtZmFtaWx5PSJzYW5zLXNlcmlmIiBmb250LXNpemU9IjE0IiBsZW5ndGhBZGp1c3Q9InNwYWNpbmciIHRleHRMZW5ndGg9IjEyOCIgeD0iMTk0IiB5PSIzMDAuNzAzMSI+UmVwb3J0IFNjcmVlbiAoVUkpPC90ZXh0PjxyZWN0IGZpbGw9IiNFMkUyRjAiIGhlaWdodD0iMjguOTg0NCIgcng9IjIuNSIgcnk9IjIuNSIgc3R5bGU9InN0cm9rZTojMTgxODE4O3N0cm9rZS13aWR0aDowLjU7IiB3aWR0aD0iMTQzIiB4PSI0MjcuNSIgeT0iNTAiLz48dGV4dCBmaWxsPSIjMDAwMDAwIiBmb250LWZhbWlseT0ic2Fucy1zZXJpZiIgZm9udC1zaXplPSIxNCIgbGVuZ3RoQWRqdXN0PSJzcGFjaW5nIiB0ZXh0TGVuZ3RoPSIxMjkiIHg9IjQzNC41IiB5PSI3MC4yMzQ0Ij5TeXN0ZW0gTG9naWMgKEFwcCk8L3RleHQ+PHJlY3QgZmlsbD0iI0UyRTJGMCIgaGVpZ2h0PSIyOC45ODQ0IiByeD0iMi41IiByeT0iMi41IiBzdHlsZT0ic3Ryb2tlOiMxODE4MTg7c3Ryb2tlLXdpZHRoOjAuNTsiIHdpZHRoPSIxNDMiIHg9IjQyNy41IiB5PSIyODAuNDY4OCIvPjx0ZXh0IGZpbGw9IiMwMDAwMDAiIGZvbnQtZmFtaWx5PSJzYW5zLXNlcmlmIiBmb250LXNpemU9IjE0IiBsZW5ndGhBZGp1c3Q9InNwYWNpbmciIHRleHRMZW5ndGg9IjEyOSIgeD0iNDM0LjUiIHk9IjMwMC43MDMxIj5TeXN0ZW0gTG9naWMgKEFwcCk8L3RleHQ+PHRleHQgZmlsbD0iIzAwMDAwMCIgZm9udC1mYW1pbHk9InNhbnMtc2VyaWYiIGZvbnQtc2l6ZT0iMTQiIGxlbmd0aEFkanVzdD0ic3BhY2luZyIgdGV4dExlbmd0aD0iMTU2IiB4PSI4MTAiIHk9Ijc4LjIzNDQiPlBvbGljZSBEQiAoQ2FycyBUYWJsZSk8L3RleHQ+PHBhdGggZD0iTTg3MywyOSBDODczLDE5IDg5MSwxOSA4OTEsMTkgQzg5MSwxOSA5MDksMTkgOTA5LDI5IEw5MDksNTUgQzkwOSw2NSA4OTEsNjUgODkxLDY1IEM4OTEsNjUgODczLDY1IDg3Myw1NSBMODczLDI5ICIgZmlsbD0iI0UyRTJGMCIgc3R5bGU9InN0cm9rZTojMTgxODE4O3N0cm9rZS13aWR0aDoxLjU7Ii8+PHBhdGggZD0iTTg3MywyOSBDODczLDM5IDg5MSwzOSA4OTEsMzkgQzg5MSwzOSA5MDksMzkgOTA5LDI5ICIgZmlsbD0ibm9uZSIgc3R5bGU9InN0cm9rZTojMTgxODE4O3N0cm9rZS13aWR0aDoxLjU7Ii8+PHRleHQgZmlsbD0iIzAwMDAwMCIgZm9udC1mYW1pbHk9InNhbnMtc2VyaWYiIGZvbnQtc2l6ZT0iMTQiIGxlbmd0aEFkanVzdD0ic3BhY2luZyIgdGV4dExlbmd0aD0iMTU2IiB4PSI4MTAiIHk9IjI5My43MDMxIj5Qb2xpY2UgREIgKENhcnMgVGFibGUpPC90ZXh0PjxwYXRoIGQ9Ik04NzMsMzA1LjQ1MzEgQzg3MywyOTUuNDUzMSA4OTEsMjk1LjQ1MzEgODkxLDI5NS40NTMxIEM4OTEsMjk1LjQ1MzEgOTA5LDI5NS40NTMxIDkwOSwzMDUuNDUzMSBMOTA5LDMzMS40NTMxIEM5MDksMzQxLjQ1MzEgODkxLDM0MS40NTMxIDg5MSwzNDEuNDUzMSBDODkxLDM0MS40NTMxIDg3MywzNDEuNDUzMSA4NzMsMzMxLjQ1MzEgTDg3MywzMDUuNDUzMSAiIGZpbGw9IiNFMkUyRjAiIHN0eWxlPSJzdHJva2U6IzE4MTgxODtzdHJva2Utd2lkdGg6MS41OyIvPjxwYXRoIGQ9Ik04NzMsMzA1LjQ1MzEgQzg3MywzMTUuNDUzMSA4OTEsMzE1LjQ1MzEgODkxLDMxNS40NTMxIEM4OTEsMzE1LjQ1MzEgOTA5LDMxNS40NTMxIDkwOSwzMDUuNDUzMSAiIGZpbGw9Im5vbmUiIHN0eWxlPSJzdHJva2U6IzE4MTgxODtzdHJva2Utd2lkdGg6MS41OyIvPjxyZWN0IGZpbGw9IiNFRUVFRUUiIGhlaWdodD0iMyIgc3R5bGU9InN0cm9rZTojRUVFRUVFO3N0cm9rZS13aWR0aDoxLjA7IiB3aWR0aD0iOTc3IiB4PSIwIiB5PSIxMDkuOTQxNCIvPjxsaW5lIHN0eWxlPSJzdHJva2U6IzAwMDAwMDtzdHJva2Utd2lkdGg6MS4wOyIgeDE9IjAiIHgyPSI5NzciIHkxPSIxMDkuOTQxNCIgeTI9IjEwOS45NDE0Ii8+PGxpbmUgc3R5bGU9InN0cm9rZTojMDAwMDAwO3N0cm9rZS13aWR0aDoxLjA7IiB4MT0iMCIgeDI9Ijk3NyIgeTE9IjExMi45NDE0IiB5Mj0iMTEyLjk0MTQiLz48cmVjdCBmaWxsPSIjRUVFRUVFIiBoZWlnaHQ9IjIxLjkxNDEiIHN0eWxlPSJzdHJva2U6IzAwMDAwMDtzdHJva2Utd2lkdGg6Mi4wOyIgd2lkdGg9IjE1NyIgeD0iNDEwIiB5PSI5OS45ODQ0Ii8+PHRleHQgZmlsbD0iIzAwMDAwMCIgZm9udC1mYW1pbHk9InNhbnMtc2VyaWYiIGZvbnQtc2l6ZT0iMTMiIGZvbnQtd2VpZ2h0PSJib2xkIiBsZW5ndGhBZGp1c3Q9InNwYWNpbmciIHRleHRMZW5ndGg9IjEzNiIgeD0iNDE2IiB5PSIxMTYuMjczNCI+U3RvbGVuIENhciBSZXBvcnRpbmc8L3RleHQ+PHBvbHlnb24gZmlsbD0iIzE4MTgxOCIgcG9pbnRzPSIyNDYsMTQ3LjgxMjUsMjU2LDE1MS44MTI1LDI0NiwxNTUuODEyNSwyNTAsMTUxLjgxMjUiIHN0eWxlPSJzdHJva2U6IzE4MTgxODtzdHJva2Utd2lkdGg6MS4wOyIvPjxsaW5lIHN0eWxlPSJzdHJva2U6IzE4MTgxODtzdHJva2Utd2lkdGg6MS4wOyIgeDE9IjU3IiB4Mj0iMjUyIiB5MT0iMTUxLjgxMjUiIHkyPSIxNTEuODEyNSIvPjx0ZXh0IGZpbGw9IiMwMDAwMDAiIGZvbnQtZmFtaWx5PSJzYW5zLXNlcmlmIiBmb250LXNpemU9IjEzIiBsZW5ndGhBZGp1c3Q9InNwYWNpbmciIHRleHRMZW5ndGg9IjE3NyIgeD0iNjQiIHk9IjE0OC4xODc1Ij5TZWxlY3QgIlJlcG9ydCBTdG9sZW4gQ2FyIjwvdGV4dD48cG9seWdvbiBmaWxsPSIjMTgxODE4IiBwb2ludHM9IjQ4NywxNzUuNzI2Niw0OTcsMTc5LjcyNjYsNDg3LDE4My43MjY2LDQ5MSwxNzkuNzI2NiIgc3R5bGU9InN0cm9rZTojMTgxODE4O3N0cm9rZS13aWR0aDoxLjA7Ii8+PGxpbmUgc3R5bGU9InN0cm9rZTojMTgxODE4O3N0cm9rZS13aWR0aDoxLjA7IiB4MT0iMjU4IiB4Mj0iNDkzIiB5MT0iMTc5LjcyNjYiIHkyPSIxNzkuNzI2NiIvPjx0ZXh0IGZpbGw9IiMwMDAwMDAiIGZvbnQtZmFtaWx5PSJzYW5zLXNlcmlmIiBmb250LXNpemU9IjEzIiBsZW5ndGhBZGp1c3Q9InNwYWNpbmciIHRleHRMZW5ndGg9IjIxNyIgeD0iMjY1IiB5PSIxNzYuMTAxNiI+VHJpZ2dlciBzdG9sZW4gY2FyIHJlcG9ydCBhY3Rpb248L3RleHQ+PHBvbHlnb24gZmlsbD0iIzE4MTgxOCIgcG9pbnRzPSI4NzksMjAzLjY0MDYsODg5LDIwNy42NDA2LDg3OSwyMTEuNjQwNiw4ODMsMjA3LjY0MDYiIHN0eWxlPSJzdHJva2U6IzE4MTgxODtzdHJva2Utd2lkdGg6MS4wOyIvPjxsaW5lIHN0eWxlPSJzdHJva2U6IzE4MTgxODtzdHJva2Utd2lkdGg6MS4wOyIgeDE9IjQ5OSIgeDI9Ijg4NSIgeTE9IjIwNy42NDA2IiB5Mj0iMjA3LjY0MDYiLz48dGV4dCBmaWxsPSIjMDAwMDAwIiBmb250LWZhbWlseT0ic2Fucy1zZXJpZiIgZm9udC1zaXplPSIxMyIgbGVuZ3RoQWRqdXN0PSJzcGFjaW5nIiB0ZXh0TGVuZ3RoPSIzNjgiIHg9IjUwNiIgeT0iMjA0LjAxNTYiPlVQREFURSBjYXJzIFNFVCBzdG9sZW4gPSAnWWVzJyBXSEVSRSBsaWNlbnNlX3BsYXRlID0gPzwvdGV4dD48cG9seWdvbiBmaWxsPSIjMTgxODE4IiBwb2ludHM9IjUxMCwyMzEuNTU0Nyw1MDAsMjM1LjU1NDcsNTEwLDIzOS41NTQ3LDUwNiwyMzUuNTU0NyIgc3R5bGU9InN0cm9rZTojMTgxODE4O3N0cm9rZS13aWR0aDoxLjA7Ii8+PGxpbmUgc3R5bGU9InN0cm9rZTojMTgxODE4O3N0cm9rZS13aWR0aDoxLjA7c3Ryb2tlLWRhc2hhcnJheToyLjAsMi4wOyIgeDE9IjUwNCIgeDI9Ijg5MCIgeTE9IjIzNS41NTQ3IiB5Mj0iMjM1LjU1NDciLz48dGV4dCBmaWxsPSIjMDAwMDAwIiBmb250LWZhbWlseT0ic2Fucy1zZXJpZiIgZm9udC1zaXplPSIxMyIgbGVuZ3RoQWRqdXN0PSJzcGFjaW5nIiB0ZXh0TGVuZ3RoPSIxNDciIHg9IjUxNiIgeT0iMjMxLjkyOTciPkNvbmZpcm1hdGlvbiBvZiB1cGRhdGU8L3RleHQ+PHBvbHlnb24gZmlsbD0iIzE4MTgxOCIgcG9pbnRzPSIyNjksMjU5LjQ2ODgsMjU5LDI2My40Njg4LDI2OSwyNjcuNDY4OCwyNjUsMjYzLjQ2ODgiIHN0eWxlPSJzdHJva2U6IzE4MTgxODtzdHJva2Utd2lkdGg6MS4wOyIvPjxsaW5lIHN0eWxlPSJzdHJva2U6IzE4MTgxODtzdHJva2Utd2lkdGg6MS4wO3N0cm9rZS1kYXNoYXJyYXk6Mi4wLDIuMDsiIHgxPSIyNjMiIHgyPSI0OTgiIHkxPSIyNjMuNDY4OCIgeTI9IjI2My40Njg4Ii8+PHRleHQgZmlsbD0iIzAwMDAwMCIgZm9udC1mYW1pbHk9InNhbnMtc2VyaWYiIGZvbnQtc2l6ZT0iMTMiIGxlbmd0aEFkanVzdD0ic3BhY2luZyIgdGV4dExlbmd0aD0iMTY4IiB4PSIyNzUiIHk9IjI1OS44NDM4Ij5TaG93IGNvbmZpcm1hdGlvbiBtZXNzYWdlPC90ZXh0PjwhLS1TUkM9W0xPXzFRZUdtNTROdC1PZ0JjeDZCLUc3MWJkNEtBWElLS0liVGJKVmZxbU9xMktiQXdUeXRMWG9jZ21KVWtVX1NIcDhPWHdHcml2QUNQWHBadW5BR0h6aThJb3VlZ0lwZldFSjJyaFkwSlpmY1pOSWU3X3dtZVZ3RlRKeS15ODhOQ29jOXo2SmpYaU1GLUExMExfOXlxdks1cVpDdlp2d2tDc3pXTUdZSHYtWTJjUUNjSmg2OWJQd0d2cUFxM093RnFQZ1h1dmRiTlI1UjhYNTNsS0JIY1E1dFFmaE9tTXpaNkhVd0JLMG9BQUQ1ZjVRdUIzOENSTmRnZ3ZObndBZi1wLUd1bEI0X3VGTXZrYkhPY3NsRnh0UWNtNzdzOUU4UG5ycnREZGZLUmc1ckRTbzhCbmtsdmFzb3pfdXF0djN0dENCVXF5SV9dLS0+PC9nPjwvc3ZnPg==;" parent="1" vertex="1">
            <mxGeometry x="-40" y="-127" width="984" height="360" as="geometry" />
          </mxCell>
        </UserObject>
        <UserObject label="" plantUmlData="{&#xa;  &quot;data&quot;: &quot;@startuml\nactor \&quot;Police Officer\&quot; as PO\nparticipant \&quot;Ticket Screen (UI)\&quot; as UI\nparticipant \&quot;System Logic (App)\&quot; as App\ndatabase \&quot;Police DB (Tickets Table)\&quot; as DB\n\n== Ticket Filing Process ==\n\nPO -&gt; UI: Select \&quot;File Ticket\&quot;\nUI -&gt; App: Open ticket form\nPO -&gt; UI: Enter ticket data\nUI -&gt; App: Send ticket data\n\nalt [Draft Resumed]\n    App --&gt; UI: Load saved draft\nend\n\nalt [Ticket Submitted]\n    App -&gt; DB: Insert ticket data into tickets table\n    DB --&gt; App: Confirm save\n    App --&gt; UI: Show success message\nelse [Missing Fields]\n    App --&gt; UI: Show validation error\nend\n\n@enduml\n&quot;,&#xa;  &quot;format&quot;: &quot;svg&quot;&#xa;}" id="8bzAcpJlCO16CAiFJlRz-10">
          <mxCell style="shape=image;noLabel=1;verticalAlign=top;aspect=fixed;imageAspect=0;image=data:image/svg+xml,PD94bWwgdmVyc2lvbj0iMS4wIiBlbmNvZGluZz0idXMtYXNjaWkiIHN0YW5kYWxvbmU9Im5vIj8+PHN2ZyB4bWxucz0iaHR0cDovL3d3dy53My5vcmcvMjAwMC9zdmciIHhtbG5zOnhsaW5rPSJodHRwOi8vd3d3LnczLm9yZy8xOTk5L3hsaW5rIiBjb250ZW50U3R5bGVUeXBlPSJ0ZXh0L2NzcyIgaGVpZ2h0PSI1NDZweCIgcHJlc2VydmVBc3BlY3RSYXRpbz0ibm9uZSIgc3R5bGU9IndpZHRoOjc2OHB4O2hlaWdodDo1NDZweDtiYWNrZ3JvdW5kOiNGRkZGRkY7IiB2ZXJzaW9uPSIxLjEiIHZpZXdCb3g9IjAgMCA3NjggNTQ2IiB3aWR0aD0iNzY4cHgiIHpvb21BbmRQYW49Im1hZ25pZnkiPjxkZWZzLz48Zz48cmVjdCBmaWxsPSJub25lIiBoZWlnaHQ9IjQzLjgyODEiIHN0eWxlPSJzdHJva2U6IzAwMDAwMDtzdHJva2Utd2lkdGg6MS41OyIgd2lkdGg9IjMyOC41IiB4PSIxMzMiIHk9IjI1MC41NTQ3Ii8+PHJlY3QgZmlsbD0ibm9uZSIgaGVpZ2h0PSIxNDEuMzQzOCIgc3R5bGU9InN0cm9rZTojMDAwMDAwO3N0cm9rZS13aWR0aDoxLjU7IiB3aWR0aD0iNjE4LjUiIHg9IjEzMyIgeT0iMzA4LjM4MjgiLz48bGluZSBzdHlsZT0ic3Ryb2tlOiMxODE4MTg7c3Ryb2tlLXdpZHRoOjAuNTtzdHJva2UtZGFzaGFycmF5OjUuMCw1LjA7IiB4MT0iNTciIHgyPSI1NyIgeTE9Ijc5Ljk4NDQiIHkyPSI0NjYuNzI2NiIvPjxsaW5lIHN0eWxlPSJzdHJva2U6IzE4MTgxODtzdHJva2Utd2lkdGg6MC41O3N0cm9rZS1kYXNoYXJyYXk6NS4wLDUuMDsiIHgxPSIyMTQiIHgyPSIyMTQiIHkxPSI3OS45ODQ0IiB5Mj0iNDY2LjcyNjYiLz48bGluZSBzdHlsZT0ic3Ryb2tlOiMxODE4MTg7c3Ryb2tlLXdpZHRoOjAuNTtzdHJva2UtZGFzaGFycmF5OjUuMCw1LjA7IiB4MT0iMzc5LjUiIHgyPSIzNzkuNSIgeTE9Ijc5Ljk4NDQiIHkyPSI0NjYuNzI2NiIvPjxsaW5lIHN0eWxlPSJzdHJva2U6IzE4MTgxODtzdHJva2Utd2lkdGg6MC41O3N0cm9rZS1kYXNoYXJyYXk6NS4wLDUuMDsiIHgxPSI2NDkuNSIgeDI9IjY0OS41IiB5MT0iNzkuOTg0NCIgeTI9IjQ2Ni43MjY2Ii8+PHRleHQgZmlsbD0iIzAwMDAwMCIgZm9udC1mYW1pbHk9InNhbnMtc2VyaWYiIGZvbnQtc2l6ZT0iMTQiIGxlbmd0aEFkanVzdD0ic3BhY2luZyIgdGV4dExlbmd0aD0iOTgiIHg9IjUiIHk9Ijc4LjIzNDQiPlBvbGljZSBPZmZpY2VyPC90ZXh0PjxlbGxpcHNlIGN4PSI1NyIgY3k9IjEzLjUiIGZpbGw9IiNFMkUyRjAiIHJ4PSI4IiByeT0iOCIgc3R5bGU9InN0cm9rZTojMTgxODE4O3N0cm9rZS13aWR0aDowLjU7Ii8+PHBhdGggZD0iTTU3LDIxLjUgTDU3LDQ4LjUgTTQ0LDI5LjUgTDcwLDI5LjUgTTU3LDQ4LjUgTDQ0LDYzLjUgTTU3LDQ4LjUgTDcwLDYzLjUgIiBmaWxsPSJub25lIiBzdHlsZT0ic3Ryb2tlOiMxODE4MTg7c3Ryb2tlLXdpZHRoOjAuNTsiLz48dGV4dCBmaWxsPSIjMDAwMDAwIiBmb250LWZhbWlseT0ic2Fucy1zZXJpZiIgZm9udC1zaXplPSIxNCIgbGVuZ3RoQWRqdXN0PSJzcGFjaW5nIiB0ZXh0TGVuZ3RoPSI5OCIgeD0iNSIgeT0iNDc4Ljk2MDkiPlBvbGljZSBPZmZpY2VyPC90ZXh0PjxlbGxpcHNlIGN4PSI1NyIgY3k9IjQ4OS4yMTA5IiBmaWxsPSIjRTJFMkYwIiByeD0iOCIgcnk9IjgiIHN0eWxlPSJzdHJva2U6IzE4MTgxODtzdHJva2Utd2lkdGg6MC41OyIvPjxwYXRoIGQ9Ik01Nyw0OTcuMjEwOSBMNTcsNTI0LjIxMDkgTTQ0LDUwNS4yMTA5IEw3MCw1MDUuMjEwOSBNNTcsNTI0LjIxMDkgTDQ0LDUzOS4yMTA5IE01Nyw1MjQuMjEwOSBMNzAsNTM5LjIxMDkgIiBmaWxsPSJub25lIiBzdHlsZT0ic3Ryb2tlOiMxODE4MTg7c3Ryb2tlLXdpZHRoOjAuNTsiLz48cmVjdCBmaWxsPSIjRTJFMkYwIiBoZWlnaHQ9IjI4Ljk4NDQiIHJ4PSIyLjUiIHJ5PSIyLjUiIHN0eWxlPSJzdHJva2U6IzE4MTgxODtzdHJva2Utd2lkdGg6MC41OyIgd2lkdGg9IjE0MiIgeD0iMTQzIiB5PSI1MCIvPjx0ZXh0IGZpbGw9IiMwMDAwMDAiIGZvbnQtZmFtaWx5PSJzYW5zLXNlcmlmIiBmb250LXNpemU9IjE0IiBsZW5ndGhBZGp1c3Q9InNwYWNpbmciIHRleHRMZW5ndGg9IjEyOCIgeD0iMTUwIiB5PSI3MC4yMzQ0Ij5UaWNrZXQgU2NyZWVuIChVSSk8L3RleHQ+PHJlY3QgZmlsbD0iI0UyRTJGMCIgaGVpZ2h0PSIyOC45ODQ0IiByeD0iMi41IiByeT0iMi41IiBzdHlsZT0ic3Ryb2tlOiMxODE4MTg7c3Ryb2tlLXdpZHRoOjAuNTsiIHdpZHRoPSIxNDIiIHg9IjE0MyIgeT0iNDY1LjcyNjYiLz48dGV4dCBmaWxsPSIjMDAwMDAwIiBmb250LWZhbWlseT0ic2Fucy1zZXJpZiIgZm9udC1zaXplPSIxNCIgbGVuZ3RoQWRqdXN0PSJzcGFjaW5nIiB0ZXh0TGVuZ3RoPSIxMjgiIHg9IjE1MCIgeT0iNDg1Ljk2MDkiPlRpY2tldCBTY3JlZW4gKFVJKTwvdGV4dD48cmVjdCBmaWxsPSIjRTJFMkYwIiBoZWlnaHQ9IjI4Ljk4NDQiIHJ4PSIyLjUiIHJ5PSIyLjUiIHN0eWxlPSJzdHJva2U6IzE4MTgxODtzdHJva2Utd2lkdGg6MC41OyIgd2lkdGg9IjE0MyIgeD0iMzA4LjUiIHk9IjUwIi8+PHRleHQgZmlsbD0iIzAwMDAwMCIgZm9udC1mYW1pbHk9InNhbnMtc2VyaWYiIGZvbnQtc2l6ZT0iMTQiIGxlbmd0aEFkanVzdD0ic3BhY2luZyIgdGV4dExlbmd0aD0iMTI5IiB4PSIzMTUuNSIgeT0iNzAuMjM0NCI+U3lzdGVtIExvZ2ljIChBcHApPC90ZXh0PjxyZWN0IGZpbGw9IiNFMkUyRjAiIGhlaWdodD0iMjguOTg0NCIgcng9IjIuNSIgcnk9IjIuNSIgc3R5bGU9InN0cm9rZTojMTgxODE4O3N0cm9rZS13aWR0aDowLjU7IiB3aWR0aD0iMTQzIiB4PSIzMDguNSIgeT0iNDY1LjcyNjYiLz48dGV4dCBmaWxsPSIjMDAwMDAwIiBmb250LWZhbWlseT0ic2Fucy1zZXJpZiIgZm9udC1zaXplPSIxNCIgbGVuZ3RoQWRqdXN0PSJzcGFjaW5nIiB0ZXh0TGVuZ3RoPSIxMjkiIHg9IjMxNS41IiB5PSI0ODUuOTYwOSI+U3lzdGVtIExvZ2ljIChBcHApPC90ZXh0Pjx0ZXh0IGZpbGw9IiMwMDAwMDAiIGZvbnQtZmFtaWx5PSJzYW5zLXNlcmlmIiBmb250LXNpemU9IjE0IiBsZW5ndGhBZGp1c3Q9InNwYWNpbmciIHRleHRMZW5ndGg9IjE3NyIgeD0iNTU4LjUiIHk9Ijc4LjIzNDQiPlBvbGljZSBEQiAoVGlja2V0cyBUYWJsZSk8L3RleHQ+PHBhdGggZD0iTTYzMiwyOSBDNjMyLDE5IDY1MCwxOSA2NTAsMTkgQzY1MCwxOSA2NjgsMTkgNjY4LDI5IEw2NjgsNTUgQzY2OCw2NSA2NTAsNjUgNjUwLDY1IEM2NTAsNjUgNjMyLDY1IDYzMiw1NSBMNjMyLDI5ICIgZmlsbD0iI0UyRTJGMCIgc3R5bGU9InN0cm9rZTojMTgxODE4O3N0cm9rZS13aWR0aDoxLjU7Ii8+PHBhdGggZD0iTTYzMiwyOSBDNjMyLDM5IDY1MCwzOSA2NTAsMzkgQzY1MCwzOSA2NjgsMzkgNjY4LDI5ICIgZmlsbD0ibm9uZSIgc3R5bGU9InN0cm9rZTojMTgxODE4O3N0cm9rZS13aWR0aDoxLjU7Ii8+PHRleHQgZmlsbD0iIzAwMDAwMCIgZm9udC1mYW1pbHk9InNhbnMtc2VyaWYiIGZvbnQtc2l6ZT0iMTQiIGxlbmd0aEFkanVzdD0ic3BhY2luZyIgdGV4dExlbmd0aD0iMTc3IiB4PSI1NTguNSIgeT0iNDc4Ljk2MDkiPlBvbGljZSBEQiAoVGlja2V0cyBUYWJsZSk8L3RleHQ+PHBhdGggZD0iTTYzMiw0OTAuNzEwOSBDNjMyLDQ4MC43MTA5IDY1MCw0ODAuNzEwOSA2NTAsNDgwLjcxMDkgQzY1MCw0ODAuNzEwOSA2NjgsNDgwLjcxMDkgNjY4LDQ5MC43MTA5IEw2NjgsNTE2LjcxMDkgQzY2OCw1MjYuNzEwOSA2NTAsNTI2LjcxMDkgNjUwLDUyNi43MTA5IEM2NTAsNTI2LjcxMDkgNjMyLDUyNi43MTA5IDYzMiw1MTYuNzEwOSBMNjMyLDQ5MC43MTA5ICIgZmlsbD0iI0UyRTJGMCIgc3R5bGU9InN0cm9rZTojMTgxODE4O3N0cm9rZS13aWR0aDoxLjU7Ii8+PHBhdGggZD0iTTYzMiw0OTAuNzEwOSBDNjMyLDUwMC43MTA5IDY1MCw1MDAuNzEwOSA2NTAsNTAwLjcxMDkgQzY1MCw1MDAuNzEwOSA2NjgsNTAwLjcxMDkgNjY4LDQ5MC43MTA5ICIgZmlsbD0ibm9uZSIgc3R5bGU9InN0cm9rZTojMTgxODE4O3N0cm9rZS13aWR0aDoxLjU7Ii8+PHJlY3QgZmlsbD0iI0VFRUVFRSIgaGVpZ2h0PSIzIiBzdHlsZT0ic3Ryb2tlOiNFRUVFRUU7c3Ryb2tlLXdpZHRoOjEuMDsiIHdpZHRoPSI3NjEuNSIgeD0iMCIgeT0iMTA5Ljk0MTQiLz48bGluZSBzdHlsZT0ic3Ryb2tlOiMwMDAwMDA7c3Ryb2tlLXdpZHRoOjEuMDsiIHgxPSIwIiB4Mj0iNzYxLjUiIHkxPSIxMDkuOTQxNCIgeTI9IjEwOS45NDE0Ii8+PGxpbmUgc3R5bGU9InN0cm9rZTojMDAwMDAwO3N0cm9rZS13aWR0aDoxLjA7IiB4MT0iMCIgeDI9Ijc2MS41IiB5MT0iMTEyLjk0MTQiIHkyPSIxMTIuOTQxNCIvPjxyZWN0IGZpbGw9IiNFRUVFRUUiIGhlaWdodD0iMjEuOTE0MSIgc3R5bGU9InN0cm9rZTojMDAwMDAwO3N0cm9rZS13aWR0aDoyLjA7IiB3aWR0aD0iMTYyIiB4PSIyOTkuNzUiIHk9Ijk5Ljk4NDQiLz48dGV4dCBmaWxsPSIjMDAwMDAwIiBmb250LWZhbWlseT0ic2Fucy1zZXJpZiIgZm9udC1zaXplPSIxMyIgZm9udC13ZWlnaHQ9ImJvbGQiIGxlbmd0aEFkanVzdD0ic3BhY2luZyIgdGV4dExlbmd0aD0iMTQxIiB4PSIzMDUuNzUiIHk9IjExNi4yNzM0Ij5UaWNrZXQgRmlsaW5nIFByb2Nlc3M8L3RleHQ+PHBvbHlnb24gZmlsbD0iIzE4MTgxOCIgcG9pbnRzPSIyMDIsMTQ3LjgxMjUsMjEyLDE1MS44MTI1LDIwMiwxNTUuODEyNSwyMDYsMTUxLjgxMjUiIHN0eWxlPSJzdHJva2U6IzE4MTgxODtzdHJva2Utd2lkdGg6MS4wOyIvPjxsaW5lIHN0eWxlPSJzdHJva2U6IzE4MTgxODtzdHJva2Utd2lkdGg6MS4wOyIgeDE9IjU3IiB4Mj0iMjA4IiB5MT0iMTUxLjgxMjUiIHkyPSIxNTEuODEyNSIvPjx0ZXh0IGZpbGw9IiMwMDAwMDAiIGZvbnQtZmFtaWx5PSJzYW5zLXNlcmlmIiBmb250LXNpemU9IjEzIiBsZW5ndGhBZGp1c3Q9InNwYWNpbmciIHRleHRMZW5ndGg9IjEzMyIgeD0iNjQiIHk9IjE0OC4xODc1Ij5TZWxlY3QgIkZpbGUgVGlja2V0IjwvdGV4dD48cG9seWdvbiBmaWxsPSIjMTgxODE4IiBwb2ludHM9IjM2OCwxNzUuNzI2NiwzNzgsMTc5LjcyNjYsMzY4LDE4My43MjY2LDM3MiwxNzkuNzI2NiIgc3R5bGU9InN0cm9rZTojMTgxODE4O3N0cm9rZS13aWR0aDoxLjA7Ii8+PGxpbmUgc3R5bGU9InN0cm9rZTojMTgxODE4O3N0cm9rZS13aWR0aDoxLjA7IiB4MT0iMjE0IiB4Mj0iMzc0IiB5MT0iMTc5LjcyNjYiIHkyPSIxNzkuNzI2NiIvPjx0ZXh0IGZpbGw9IiMwMDAwMDAiIGZvbnQtZmFtaWx5PSJzYW5zLXNlcmlmIiBmb250LXNpemU9IjEzIiBsZW5ndGhBZGp1c3Q9InNwYWNpbmciIHRleHRMZW5ndGg9IjEwNyIgeD0iMjIxIiB5PSIxNzYuMTAxNiI+T3BlbiB0aWNrZXQgZm9ybTwvdGV4dD48cG9seWdvbiBmaWxsPSIjMTgxODE4IiBwb2ludHM9IjIwMiwyMDMuNjQwNiwyMTIsMjA3LjY0MDYsMjAyLDIxMS42NDA2LDIwNiwyMDcuNjQwNiIgc3R5bGU9InN0cm9rZTojMTgxODE4O3N0cm9rZS13aWR0aDoxLjA7Ii8+PGxpbmUgc3R5bGU9InN0cm9rZTojMTgxODE4O3N0cm9rZS13aWR0aDoxLjA7IiB4MT0iNTciIHgyPSIyMDgiIHkxPSIyMDcuNjQwNiIgeTI9IjIwNy42NDA2Ii8+PHRleHQgZmlsbD0iIzAwMDAwMCIgZm9udC1mYW1pbHk9InNhbnMtc2VyaWYiIGZvbnQtc2l6ZT0iMTMiIGxlbmd0aEFkanVzdD0ic3BhY2luZyIgdGV4dExlbmd0aD0iMTE0IiB4PSI2NCIgeT0iMjA0LjAxNTYiPkVudGVyIHRpY2tldCBkYXRhPC90ZXh0Pjxwb2x5Z29uIGZpbGw9IiMxODE4MTgiIHBvaW50cz0iMzY4LDIzMS41NTQ3LDM3OCwyMzUuNTU0NywzNjgsMjM5LjU1NDcsMzcyLDIzNS41NTQ3IiBzdHlsZT0ic3Ryb2tlOiMxODE4MTg7c3Ryb2tlLXdpZHRoOjEuMDsiLz48bGluZSBzdHlsZT0ic3Ryb2tlOiMxODE4MTg7c3Ryb2tlLXdpZHRoOjEuMDsiIHgxPSIyMTQiIHgyPSIzNzQiIHkxPSIyMzUuNTU0NyIgeTI9IjIzNS41NTQ3Ii8+PHRleHQgZmlsbD0iIzAwMDAwMCIgZm9udC1mYW1pbHk9InNhbnMtc2VyaWYiIGZvbnQtc2l6ZT0iMTMiIGxlbmd0aEFkanVzdD0ic3BhY2luZyIgdGV4dExlbmd0aD0iMTA4IiB4PSIyMjEiIHk9IjIzMS45Mjk3Ij5TZW5kIHRpY2tldCBkYXRhPC90ZXh0PjxwYXRoIGQ9Ik0xMzMsMjUwLjU1NDcgTDE5NywyNTAuNTU0NyBMMTk3LDI1Ni40Njg4IEwxODcsMjY2LjQ2ODggTDEzMywyNjYuNDY4OCBMMTMzLDI1MC41NTQ3ICIgZmlsbD0iI0VFRUVFRSIgc3R5bGU9InN0cm9rZTojMDAwMDAwO3N0cm9rZS13aWR0aDoxLjU7Ii8+PHJlY3QgZmlsbD0ibm9uZSIgaGVpZ2h0PSI0My44MjgxIiBzdHlsZT0ic3Ryb2tlOiMwMDAwMDA7c3Ryb2tlLXdpZHRoOjEuNTsiIHdpZHRoPSIzMjguNSIgeD0iMTMzIiB5PSIyNTAuNTU0NyIvPjx0ZXh0IGZpbGw9IiMwMDAwMDAiIGZvbnQtZmFtaWx5PSJzYW5zLXNlcmlmIiBmb250LXNpemU9IjEzIiBmb250LXdlaWdodD0iYm9sZCIgbGVuZ3RoQWRqdXN0PSJzcGFjaW5nIiB0ZXh0TGVuZ3RoPSIxOSIgeD0iMTQ4IiB5PSIyNjMuODQzOCI+YWx0PC90ZXh0PjxhIGhyZWY9IkRyYWZ0IiB0YXJnZXQ9Il90b3AiIHRpdGxlPSJEcmFmdCIgeGxpbms6YWN0dWF0ZT0ib25SZXF1ZXN0IiB4bGluazpocmVmPSJEcmFmdCIgeGxpbms6c2hvdz0ibmV3IiB4bGluazp0aXRsZT0iRHJhZnQiIHhsaW5rOnR5cGU9InNpbXBsZSI+PHRleHQgZmlsbD0iIzAwMDBGRiIgZm9udC1mYW1pbHk9InNhbnMtc2VyaWYiIGZvbnQtc2l6ZT0iMTEiIGZvbnQtd2VpZ2h0PSJib2xkIiBsZW5ndGhBZGp1c3Q9InNwYWNpbmciIHRleHQtZGVjb3JhdGlvbj0idW5kZXJsaW5lIiB0ZXh0TGVuZ3RoPSI0MiIgeD0iMjEyIiB5PSIyNjIuOTUzMSI+UmVzdW1lZDwvdGV4dD48L2E+PHBvbHlnb24gZmlsbD0iIzE4MTgxOCIgcG9pbnRzPSIyMjUsMjgyLjM4MjgsMjE1LDI4Ni4zODI4LDIyNSwyOTAuMzgyOCwyMjEsMjg2LjM4MjgiIHN0eWxlPSJzdHJva2U6IzE4MTgxODtzdHJva2Utd2lkdGg6MS4wOyIvPjxsaW5lIHN0eWxlPSJzdHJva2U6IzE4MTgxODtzdHJva2Utd2lkdGg6MS4wO3N0cm9rZS1kYXNoYXJyYXk6Mi4wLDIuMDsiIHgxPSIyMTkiIHgyPSIzNzkiIHkxPSIyODYuMzgyOCIgeTI9IjI4Ni4zODI4Ii8+PHRleHQgZmlsbD0iIzAwMDAwMCIgZm9udC1mYW1pbHk9InNhbnMtc2VyaWYiIGZvbnQtc2l6ZT0iMTMiIGxlbmd0aEFkanVzdD0ic3BhY2luZyIgdGV4dExlbmd0aD0iMTEwIiB4PSIyMzEiIHk9IjI4Mi43NTc4Ij5Mb2FkIHNhdmVkIGRyYWZ0PC90ZXh0PjxwYXRoIGQ9Ik0xMzMsMzA4LjM4MjggTDE5NywzMDguMzgyOCBMMTk3LDMxNC4yOTY5IEwxODcsMzI0LjI5NjkgTDEzMywzMjQuMjk2OSBMMTMzLDMwOC4zODI4ICIgZmlsbD0iI0VFRUVFRSIgc3R5bGU9InN0cm9rZTojMDAwMDAwO3N0cm9rZS13aWR0aDoxLjU7Ii8+PHJlY3QgZmlsbD0ibm9uZSIgaGVpZ2h0PSIxNDEuMzQzOCIgc3R5bGU9InN0cm9rZTojMDAwMDAwO3N0cm9rZS13aWR0aDoxLjU7IiB3aWR0aD0iNjE4LjUiIHg9IjEzMyIgeT0iMzA4LjM4MjgiLz48dGV4dCBmaWxsPSIjMDAwMDAwIiBmb250LWZhbWlseT0ic2Fucy1zZXJpZiIgZm9udC1zaXplPSIxMyIgZm9udC13ZWlnaHQ9ImJvbGQiIGxlbmd0aEFkanVzdD0ic3BhY2luZyIgdGV4dExlbmd0aD0iMTkiIHg9IjE0OCIgeT0iMzIxLjY3MTkiPmFsdDwvdGV4dD48YSBocmVmPSJUaWNrZXQiIHRhcmdldD0iX3RvcCIgdGl0bGU9IlRpY2tldCIgeGxpbms6YWN0dWF0ZT0ib25SZXF1ZXN0IiB4bGluazpocmVmPSJUaWNrZXQiIHhsaW5rOnNob3c9Im5ldyIgeGxpbms6dGl0bGU9IlRpY2tldCIgeGxpbms6dHlwZT0ic2ltcGxlIj48dGV4dCBmaWxsPSIjMDAwMEZGIiBmb250LWZhbWlseT0ic2Fucy1zZXJpZiIgZm9udC1zaXplPSIxMSIgZm9udC13ZWlnaHQ9ImJvbGQiIGxlbmd0aEFkanVzdD0ic3BhY2luZyIgdGV4dC1kZWNvcmF0aW9uPSJ1bmRlcmxpbmUiIHRleHRMZW5ndGg9IjU0IiB4PSIyMTIiIHk9IjMyMC43ODEzIj5TdWJtaXR0ZWQ8L3RleHQ+PC9hPjxwb2x5Z29uIGZpbGw9IiMxODE4MTgiIHBvaW50cz0iNjM4LDM0MC4yMTA5LDY0OCwzNDQuMjEwOSw2MzgsMzQ4LjIxMDksNjQyLDM0NC4yMTA5IiBzdHlsZT0ic3Ryb2tlOiMxODE4MTg7c3Ryb2tlLXdpZHRoOjEuMDsiLz48bGluZSBzdHlsZT0ic3Ryb2tlOiMxODE4MTg7c3Ryb2tlLXdpZHRoOjEuMDsiIHgxPSIzODAiIHgyPSI2NDQiIHkxPSIzNDQuMjEwOSIgeTI9IjM0NC4yMTA5Ii8+PHRleHQgZmlsbD0iIzAwMDAwMCIgZm9udC1mYW1pbHk9InNhbnMtc2VyaWYiIGZvbnQtc2l6ZT0iMTMiIGxlbmd0aEFkanVzdD0ic3BhY2luZyIgdGV4dExlbmd0aD0iMjQ2IiB4PSIzODciIHk9IjM0MC41ODU5Ij5JbnNlcnQgdGlja2V0IGRhdGEgaW50byB0aWNrZXRzIHRhYmxlPC90ZXh0Pjxwb2x5Z29uIGZpbGw9IiMxODE4MTgiIHBvaW50cz0iMzkxLDM2OC4xMjUsMzgxLDM3Mi4xMjUsMzkxLDM3Ni4xMjUsMzg3LDM3Mi4xMjUiIHN0eWxlPSJzdHJva2U6IzE4MTgxODtzdHJva2Utd2lkdGg6MS4wOyIvPjxsaW5lIHN0eWxlPSJzdHJva2U6IzE4MTgxODtzdHJva2Utd2lkdGg6MS4wO3N0cm9rZS1kYXNoYXJyYXk6Mi4wLDIuMDsiIHgxPSIzODUiIHgyPSI2NDkiIHkxPSIzNzIuMTI1IiB5Mj0iMzcyLjEyNSIvPjx0ZXh0IGZpbGw9IiMwMDAwMDAiIGZvbnQtZmFtaWx5PSJzYW5zLXNlcmlmIiBmb250LXNpemU9IjEzIiBsZW5ndGhBZGp1c3Q9InNwYWNpbmciIHRleHRMZW5ndGg9IjgxIiB4PSIzOTciIHk9IjM2OC41Ij5Db25maXJtIHNhdmU8L3RleHQ+PHBvbHlnb24gZmlsbD0iIzE4MTgxOCIgcG9pbnRzPSIyMjUsMzk2LjAzOTEsMjE1LDQwMC4wMzkxLDIyNSw0MDQuMDM5MSwyMjEsNDAwLjAzOTEiIHN0eWxlPSJzdHJva2U6IzE4MTgxODtzdHJva2Utd2lkdGg6MS4wOyIvPjxsaW5lIHN0eWxlPSJzdHJva2U6IzE4MTgxODtzdHJva2Utd2lkdGg6MS4wO3N0cm9rZS1kYXNoYXJyYXk6Mi4wLDIuMDsiIHgxPSIyMTkiIHgyPSIzNzkiIHkxPSI0MDAuMDM5MSIgeTI9IjQwMC4wMzkxIi8+PHRleHQgZmlsbD0iIzAwMDAwMCIgZm9udC1mYW1pbHk9InNhbnMtc2VyaWYiIGZvbnQtc2l6ZT0iMTMiIGxlbmd0aEFkanVzdD0ic3BhY2luZyIgdGV4dExlbmd0aD0iMTM4IiB4PSIyMzEiIHk9IjM5Ni40MTQxIj5TaG93IHN1Y2Nlc3MgbWVzc2FnZTwvdGV4dD48bGluZSBzdHlsZT0ic3Ryb2tlOiMwMDAwMDA7c3Ryb2tlLXdpZHRoOjEuMDtzdHJva2UtZGFzaGFycmF5OjIuMCwyLjA7IiB4MT0iMTMzIiB4Mj0iNzUxLjUiIHkxPSI0MDkuMDM5MSIgeTI9IjQwOS4wMzkxIi8+PGEgaHJlZj0iTWlzc2luZyIgdGFyZ2V0PSJfdG9wIiB0aXRsZT0iTWlzc2luZyIgeGxpbms6YWN0dWF0ZT0ib25SZXF1ZXN0IiB4bGluazpocmVmPSJNaXNzaW5nIiB4bGluazpzaG93PSJuZXciIHhsaW5rOnRpdGxlPSJNaXNzaW5nIiB4bGluazp0eXBlPSJzaW1wbGUiPjx0ZXh0IGZpbGw9IiMwMDAwRkYiIGZvbnQtZmFtaWx5PSJzYW5zLXNlcmlmIiBmb250LXNpemU9IjExIiBmb250LXdlaWdodD0iYm9sZCIgbGVuZ3RoQWRqdXN0PSJzcGFjaW5nIiB0ZXh0LWRlY29yYXRpb249InVuZGVybGluZSIgdGV4dExlbmd0aD0iMzYiIHg9IjEzOCIgeT0iNDE5LjQzNzUiPkZpZWxkczwvdGV4dD48L2E+PHBvbHlnb24gZmlsbD0iIzE4MTgxOCIgcG9pbnRzPSIyMjUsNDM3LjcyNjYsMjE1LDQ0MS43MjY2LDIyNSw0NDUuNzI2NiwyMjEsNDQxLjcyNjYiIHN0eWxlPSJzdHJva2U6IzE4MTgxODtzdHJva2Utd2lkdGg6MS4wOyIvPjxsaW5lIHN0eWxlPSJzdHJva2U6IzE4MTgxODtzdHJva2Utd2lkdGg6MS4wO3N0cm9rZS1kYXNoYXJyYXk6Mi4wLDIuMDsiIHgxPSIyMTkiIHgyPSIzNzkiIHkxPSI0NDEuNzI2NiIgeTI9IjQ0MS43MjY2Ii8+PHRleHQgZmlsbD0iIzAwMDAwMCIgZm9udC1mYW1pbHk9InNhbnMtc2VyaWYiIGZvbnQtc2l6ZT0iMTMiIGxlbmd0aEFkanVzdD0ic3BhY2luZyIgdGV4dExlbmd0aD0iMTQyIiB4PSIyMzEiIHk9IjQzOC4xMDE2Ij5TaG93IHZhbGlkYXRpb24gZXJyb3I8L3RleHQ+PCEtLVNSQz1bUkw3QlJpOG00QnB4QXJPdnFHQ19XMUlhS2VlS1lJZkgwb1Y0T1I0dHJBZlpIX1AyclJfbHZhNDVRZHNtQlVfQ3BrbU9ET1M4TUhNU3JHSGJxeVdIQ3kwNExRYXdaNm9yeFQwcFAza2hGdWNYcmY3OG1zblZGMHNtVlY0OGd4eUpLbWxSU0JPUVBpelREeUJhZVdtb2RaM0hoem53MVJFblJPOFRkWG9Ec0ZMQWdKbzdJTjFaZFZMZGc2QkdiMUJha0w5TDJWRWJBMi1XOWFUUUwwTDQ0bzVKLXc4bFktODJvYXd5eWpZZTJSNnpleHZ3ZmRZaHpUUmtVSkx2eXIxSncxV0V3dVdEbXBrYklxbGNnNDJNbTY0LWpUbTZEOTNtSVdQQ1pySklQTUJVcWhrU01pbHlHNXhBbTBpZVZBQjh6dmZXRk9WZjhHN3QtR21hSU1yLXlfYUlWNkRaRXVaLWlMRF9YMno4NXB0YXJpZzZQckJhdjBDRVJwUWJGak1EOU1WSXlOX2c1UHFMOHBQdWUxWDN4Q1Z2MEcwMF0tLT48L2c+PC9zdmc+;" parent="1" vertex="1">
            <mxGeometry x="24" y="300" width="768" height="546" as="geometry" />
          </mxCell>
        </UserObject>
        <mxCell id="yjVwFzIp6gymlaZR3Gip-1" value="" style="group" parent="1" vertex="1" connectable="0">
          <mxGeometry x="100" y="-530" width="1036" height="403" as="geometry" />
        </mxCell>
        <mxCell id="8bzAcpJlCO16CAiFJlRz-4" value="1*" style="text;strokeColor=none;align=center;fillColor=none;html=1;verticalAlign=middle;whiteSpace=wrap;rounded=0;" parent="yjVwFzIp6gymlaZR3Gip-1" vertex="1">
          <mxGeometry x="299.5" y="70" width="60" height="30" as="geometry" />
        </mxCell>
        <mxCell id="8bzAcpJlCO16CAiFJlRz-7" value="1" style="text;strokeColor=none;align=center;fillColor=none;html=1;verticalAlign=middle;whiteSpace=wrap;rounded=0;" parent="yjVwFzIp6gymlaZR3Gip-1" vertex="1">
          <mxGeometry x="298" y="120" width="60" height="30" as="geometry" />
        </mxCell>
        <mxCell id="EbAcGEdWt47gAEx_lpvl-8" value="" style="group" vertex="1" connectable="0" parent="yjVwFzIp6gymlaZR3Gip-1">
          <mxGeometry width="1036" height="403" as="geometry" />
        </mxCell>
        <mxCell id="EbAcGEdWt47gAEx_lpvl-10" value="" style="group" vertex="1" connectable="0" parent="EbAcGEdWt47gAEx_lpvl-8">
          <mxGeometry x="-90" y="-40" width="1036" height="403" as="geometry" />
        </mxCell>
        <mxCell id="EbAcGEdWt47gAEx_lpvl-12" value="" style="group" vertex="1" connectable="0" parent="EbAcGEdWt47gAEx_lpvl-10">
          <mxGeometry width="1036" height="403" as="geometry" />
        </mxCell>
        <UserObject label="" plantUmlData="{&quot;data&quot;:&quot;@startuml\nleft to right direction\nskinparam classAttributeIconSize 0\n\nclass PoliceOfficer {\n    +name : VARCHAR \n    +badge_number : VARCHAR\n    +fileTicket()\n    +resumeDraft()\n    +reportStolenCar()\n}\n\nclass NormalUser {\n    +id : Int &lt;&lt;PK&gt;&gt;\n    +name : VARCHAR\n    +email: VARCHAR &lt;&lt;UNI&gt;&gt;\n    +password: VARCHAR\n    +license_number : VARCHAR {nullable}\n    +created_at : timestamp &lt;&lt;CURRENT_TIMESTAMP&gt;&gt;\n    +reportStolenCar()\n}\n\nclass Ticket {\n    +ticket_id: Int &lt;&lt;PK&gt;&gt;\n    +driver_license : VARCHAR\n    +ticket_type: VARCHAR\n    +ticket_details: text {nullable}\n    +issued_by_badge : VARCHAR\n    +issued_by_name : VARCHAR\n    +issue_date : timestamp\n    +saveDraft()\n    +submitTicket()\n    +validateData()\n}\n\nclass Car {\n    +id: Int &lt;&lt;PK&gt;&gt;\n    +license_plate: VARCHAR\n    +owner_name: VARCHAR {nullable}\n    +inspection_start: date {nullable}\n    +inspection_end: date {nullable}\n    +tax_paid: VARCHAR {nullable}\n    +stolen_car: VARCHAR {nullable}\n    +make_and_model: VARCHAR {nullable}\n    +color: VARCHAR {nullable}\n    +driver_license: VARCHAR {nullable}\n    +address : VARCHAR {nullable}\n}\n\nPoliceOfficer -- Ticket : \&quot;Creates\&quot;\nTicket -- Car : \&quot;Issued for\&quot;\nNormalUser -- Car : \&quot;Reports as Stolen\&quot;\n\n@enduml\n&quot;,&quot;format&quot;:&quot;svg&quot;}" id="8bzAcpJlCO16CAiFJlRz-2">
          <mxCell style="shape=image;noLabel=1;verticalAlign=top;aspect=fixed;imageAspect=0;image=data:image/svg+xml,PHN2ZyB4bWxucz0iaHR0cDovL3d3dy53My5vcmcvMjAwMC9zdmciIHhtbG5zOnhsaW5rPSJodHRwOi8vd3d3LnczLm9yZy8xOTk5L3hsaW5rIiBjb250ZW50U3R5bGVUeXBlPSJ0ZXh0L2NzcyIgZGF0YS1kaWFncmFtLXR5cGU9IkNMQVNTIiBoZWlnaHQ9IjQwM3B4IiBwcmVzZXJ2ZUFzcGVjdFJhdGlvPSJub25lIiBzdHlsZT0id2lkdGg6MTAzNnB4O2hlaWdodDo0MDNweDtiYWNrZ3JvdW5kOiNGRkZGRkY7IiB2ZXJzaW9uPSIxLjEiIHZpZXdCb3g9IjAgMCAxMDM2IDQwMyIgd2lkdGg9IjEwMzZweCIgem9vbUFuZFBhbj0ibWFnbmlmeSI+PGRlZnMvPjxnPjwhLS1jbGFzcyBQb2xpY2VPZmZpY2VyLS0+PGcgY2xhc3M9ImVudGl0eSIgZGF0YS1lbnRpdHk9IlBvbGljZU9mZmljZXIiIGRhdGEtc291cmNlLWxpbmU9IjQiIGRhdGEtdWlkPSJlbnQwMDAyIiBpZD0iZW50aXR5X1BvbGljZU9mZmljZXIiPjxyZWN0IGZpbGw9IiNGMUYxRjEiIGhlaWdodD0iMTIyLjkyMTkiIHJ4PSIyLjUiIHJ5PSIyLjUiIHN0eWxlPSJzdHJva2U6IzE4MTgxODtzdHJva2Utd2lkdGg6MC41OyIgd2lkdGg9IjE3MyIgeD0iNyIgeT0iNDQuNSIvPjxlbGxpcHNlIGN4PSI0NC41IiBjeT0iNjAuNSIgZmlsbD0iI0FERDFCMiIgcng9IjExIiByeT0iMTEiIHN0eWxlPSJzdHJva2U6IzE4MTgxODtzdHJva2Utd2lkdGg6MTsiLz48cGF0aCBkPSJNNDIuMTI1LDY0Ljc1IEw0Mi4xMjUsNjYuNSBMNDcuMDYyNSw2Ni41IEw0Ny4wNjI1LDY0Ljc1IEw0Mi4xMjUsNjQuNzUgWiBNNDIuODEyNSw2NS40Mzc1IFE0Mi44MTI1LDY1LjQzNzUgNDIuODEyNSw1Ni4yNSBMNDEuMDYyNSw1Ni4yNSBRNDEuMDYyNSw1Ni4yNSA0MS4wNjI1LDY1LjQzNzUgTDQyLjgxMjUsNjUuNDM3NSBaIE00Ni4zNzUsNjUuNDM3NSBMNDguMTI1LDY1LjQzNzUgUTQ4LjEyNSw2NS40Mzc1IDQ4LjEyNSw2Mi42MjUgTDQ2LjM3NSw2Mi42MjUgUTQ2LjM3NSw2Mi42MjUgNDYuMzc1LDY1LjQzNzUgWiBNNDYuMzc1LDU2LjI1IFE0Ni4zNzUsNTYuMjUgNDYuMzc1LDU5LjA2MjUgTDQ4LjEyNSw1OS4wNjI1IFE0OC4xMjUsNTkuMDYyNSA0OC4xMjUsNTYuMjUgTDQ2LjM3NSw1Ni4yNSBaIE00Mi4xMjUsNTYuOTM3NSBMNDcuMDYyNSw1Ni45Mzc1IEw0Ny4wNjI1LDU1LjE4NzUgTDQyLjEyNSw1NS4xODc1IEw0Mi4xMjUsNTYuOTM3NSBaICIgZmlsbD0iIzAwMDAwMCIvPjx0ZXh0IGZpbGw9IiMwMDAwMDAiIGZvbnQtZmFtaWx5PSJzYW5zLXNlcmlmIiBmb250LXNpemU9IjE0IiBsZW5ndGhBZGp1c3Q9InNwYWNpbmciIHRleHRMZW5ndGg9IjkxIiB4PSI2My41IiB5PSI2Ni4yNDIyIj5Qb2xpY2VPZmZpY2VyPC90ZXh0PjxsaW5lIHN0eWxlPSJzdHJva2U6IzE4MTgxODtzdHJva2Utd2lkdGg6MC41OyIgeDE9IjgiIHgyPSIxNzkiIHkxPSI3Ni41IiB5Mj0iNzYuNSIvPjx0ZXh0IGZpbGw9IiMwMDAwMDAiIGZvbnQtZmFtaWx5PSJzYW5zLXNlcmlmIiBmb250LXNpemU9IjE0IiBsZW5ndGhBZGp1c3Q9InNwYWNpbmciIHRleHRMZW5ndGg9IjEwNSIgeD0iMTMiIHk9IjkzLjczNDQiPituYW1lIDogVkFSQ0hBUjwvdGV4dD48dGV4dCBmaWxsPSIjMDAwMDAwIiBmb250LWZhbWlseT0ic2Fucy1zZXJpZiIgZm9udC1zaXplPSIxNCIgbGVuZ3RoQWRqdXN0PSJzcGFjaW5nIiB0ZXh0TGVuZ3RoPSIxNjEiIHg9IjEzIiB5PSIxMDguNzE4OCI+K2JhZGdlX251bWJlciA6IFZBUkNIQVI8L3RleHQ+PGxpbmUgc3R5bGU9InN0cm9rZTojMTgxODE4O3N0cm9rZS13aWR0aDowLjU7IiB4MT0iOCIgeDI9IjE3OSIgeTE9IjExNC40Njg4IiB5Mj0iMTE0LjQ2ODgiLz48dGV4dCBmaWxsPSIjMDAwMDAwIiBmb250LWZhbWlseT0ic2Fucy1zZXJpZiIgZm9udC1zaXplPSIxNCIgbGVuZ3RoQWRqdXN0PSJzcGFjaW5nIiB0ZXh0TGVuZ3RoPSI5MSIgeD0iMTMiIHk9IjEzMS43MDMxIj4rZmlsZVRpY2tldCgpPC90ZXh0Pjx0ZXh0IGZpbGw9IiMwMDAwMDAiIGZvbnQtZmFtaWx5PSJzYW5zLXNlcmlmIiBmb250LXNpemU9IjE0IiBsZW5ndGhBZGp1c3Q9InNwYWNpbmciIHRleHRMZW5ndGg9Ijk4IiB4PSIxMyIgeT0iMTQ2LjY4NzUiPityZXN1bWVEcmFmdCgpPC90ZXh0Pjx0ZXh0IGZpbGw9IiMwMDAwMDAiIGZvbnQtZmFtaWx5PSJzYW5zLXNlcmlmIiBmb250LXNpemU9IjE0IiBsZW5ndGhBZGp1c3Q9InNwYWNpbmciIHRleHRMZW5ndGg9IjEyNiIgeD0iMTMiIHk9IjE2MS42NzE5Ij4rcmVwb3J0U3RvbGVuQ2FyKCk8L3RleHQ+PC9nPjwhLS1jbGFzcyBOb3JtYWxVc2VyLS0+PGcgY2xhc3M9ImVudGl0eSIgZGF0YS1lbnRpdHk9Ik5vcm1hbFVzZXIiIGRhdGEtc291cmNlLWxpbmU9IjEyIiBkYXRhLXVpZD0iZW50MDAwMyIgaWQ9ImVudGl0eV9Ob3JtYWxVc2VyIj48cmVjdCBmaWxsPSIjRjFGMUYxIiBoZWlnaHQ9IjE1Mi44OTA2IiByeD0iMi41IiByeT0iMi41IiBzdHlsZT0ic3Ryb2tlOiMxODE4MTg7c3Ryb2tlLXdpZHRoOjAuNTsiIHdpZHRoPSIzMTMiIHg9IjI4NyIgeT0iMjQwLjUiLz48ZWxsaXBzZSBjeD0iNDA0LjI1IiBjeT0iMjU2LjUiIGZpbGw9IiNBREQxQjIiIHJ4PSIxMSIgcnk9IjExIiBzdHlsZT0ic3Ryb2tlOiMxODE4MTg7c3Ryb2tlLXdpZHRoOjE7Ii8+PHBhdGggZD0iTTQwMS44NzUsMjYwLjc1IEw0MDEuODc1LDI2Mi41IEw0MDYuODEyNSwyNjIuNSBMNDA2LjgxMjUsMjYwLjc1IEw0MDEuODc1LDI2MC43NSBaIE00MDIuNTYyNSwyNjEuNDM3NSBRNDAyLjU2MjUsMjYxLjQzNzUgNDAyLjU2MjUsMjUyLjI1IEw0MDAuODEyNSwyNTIuMjUgUTQwMC44MTI1LDI1Mi4yNSA0MDAuODEyNSwyNjEuNDM3NSBMNDAyLjU2MjUsMjYxLjQzNzUgWiBNNDA2LjEyNSwyNjEuNDM3NSBMNDA3Ljg3NSwyNjEuNDM3NSBRNDA3Ljg3NSwyNjEuNDM3NSA0MDcuODc1LDI1OC42MjUgTDQwNi4xMjUsMjU4LjYyNSBRNDA2LjEyNSwyNTguNjI1IDQwNi4xMjUsMjYxLjQzNzUgWiBNNDA2LjEyNSwyNTIuMjUgUTQwNi4xMjUsMjUyLjI1IDQwNi4xMjUsMjU1LjA2MjUgTDQwNy44NzUsMjU1LjA2MjUgUTQwNy44NzUsMjU1LjA2MjUgNDA3Ljg3NSwyNTIuMjUgTDQwNi4xMjUsMjUyLjI1IFogTTQwMS44NzUsMjUyLjkzNzUgTDQwNi44MTI1LDI1Mi45Mzc1IEw0MDYuODEyNSwyNTEuMTg3NSBMNDAxLjg3NSwyNTEuMTg3NSBMNDAxLjg3NSwyNTIuOTM3NSBaICIgZmlsbD0iIzAwMDAwMCIvPjx0ZXh0IGZpbGw9IiMwMDAwMDAiIGZvbnQtZmFtaWx5PSJzYW5zLXNlcmlmIiBmb250LXNpemU9IjE0IiBsZW5ndGhBZGp1c3Q9InNwYWNpbmciIHRleHRMZW5ndGg9IjcwIiB4PSI0MjQuNzUiIHk9IjI2Mi4yNDIyIj5Ob3JtYWxVc2VyPC90ZXh0PjxsaW5lIHN0eWxlPSJzdHJva2U6IzE4MTgxODtzdHJva2Utd2lkdGg6MC41OyIgeDE9IjI4OCIgeDI9IjU5OSIgeTE9IjI3Mi41IiB5Mj0iMjcyLjUiLz48dGV4dCBmaWxsPSIjMDAwMDAwIiBmb250LWZhbWlseT0ic2Fucy1zZXJpZiIgZm9udC1zaXplPSIxNCIgbGVuZ3RoQWRqdXN0PSJzcGFjaW5nIiB0ZXh0TGVuZ3RoPSI5OCIgeD0iMjkzIiB5PSIyODkuNzM0NCI+K2lkIDogSW50ICYjMTcxO1BLJiMxODc7PC90ZXh0Pjx0ZXh0IGZpbGw9IiMwMDAwMDAiIGZvbnQtZmFtaWx5PSJzYW5zLXNlcmlmIiBmb250LXNpemU9IjE0IiBsZW5ndGhBZGp1c3Q9InNwYWNpbmciIHRleHRMZW5ndGg9IjEwNSIgeD0iMjkzIiB5PSIzMDQuNzE4OCI+K25hbWUgOiBWQVJDSEFSPC90ZXh0Pjx0ZXh0IGZpbGw9IiMwMDAwMDAiIGZvbnQtZmFtaWx5PSJzYW5zLXNlcmlmIiBmb250LXNpemU9IjE0IiBsZW5ndGhBZGp1c3Q9InNwYWNpbmciIHRleHRMZW5ndGg9IjE0NyIgeD0iMjkzIiB5PSIzMTkuNzAzMSI+K2VtYWlsOiBWQVJDSEFSICYjMTcxO1VOSSYjMTg3OzwvdGV4dD48dGV4dCBmaWxsPSIjMDAwMDAwIiBmb250LWZhbWlseT0ic2Fucy1zZXJpZiIgZm9udC1zaXplPSIxNCIgbGVuZ3RoQWRqdXN0PSJzcGFjaW5nIiB0ZXh0TGVuZ3RoPSIxMjYiIHg9IjI5MyIgeT0iMzM0LjY4NzUiPitwYXNzd29yZDogVkFSQ0hBUjwvdGV4dD48dGV4dCBmaWxsPSIjMDAwMDAwIiBmb250LWZhbWlseT0ic2Fucy1zZXJpZiIgZm9udC1zaXplPSIxNCIgbGVuZ3RoQWRqdXN0PSJzcGFjaW5nIiB0ZXh0TGVuZ3RoPSIyNTIiIHg9IjI5MyIgeT0iMzQ5LjY3MTkiPitsaWNlbnNlX251bWJlciA6IFZBUkNIQVIge251bGxhYmxlfTwvdGV4dD48dGV4dCBmaWxsPSIjMDAwMDAwIiBmb250LWZhbWlseT0ic2Fucy1zZXJpZiIgZm9udC1zaXplPSIxNCIgbGVuZ3RoQWRqdXN0PSJzcGFjaW5nIiB0ZXh0TGVuZ3RoPSIzMDEiIHg9IjI5MyIgeT0iMzY0LjY1NjMiPitjcmVhdGVkX2F0IDogdGltZXN0YW1wICYjMTcxO0NVUlJFTlRfVElNRVNUQU1QJiMxODc7PC90ZXh0PjxsaW5lIHN0eWxlPSJzdHJva2U6IzE4MTgxODtzdHJva2Utd2lkdGg6MC41OyIgeDE9IjI4OCIgeDI9IjU5OSIgeTE9IjM3MC40MDYzIiB5Mj0iMzcwLjQwNjMiLz48dGV4dCBmaWxsPSIjMDAwMDAwIiBmb250LWZhbWlseT0ic2Fucy1zZXJpZiIgZm9udC1zaXplPSIxNCIgbGVuZ3RoQWRqdXN0PSJzcGFjaW5nIiB0ZXh0TGVuZ3RoPSIxMjYiIHg9IjI5MyIgeT0iMzg3LjY0MDYiPityZXBvcnRTdG9sZW5DYXIoKTwvdGV4dD48L2c+PCEtLWNsYXNzIFRpY2tldC0tPjxnIGNsYXNzPSJlbnRpdHkiIGRhdGEtZW50aXR5PSJUaWNrZXQiIGRhdGEtc291cmNlLWxpbmU9IjIyIiBkYXRhLXVpZD0iZW50MDAwNCIgaWQ9ImVudGl0eV9UaWNrZXQiPjxyZWN0IGZpbGw9IiNGMUYxRjEiIGhlaWdodD0iMTk3Ljg0MzgiIHJ4PSIyLjUiIHJ5PSIyLjUiIHN0eWxlPSJzdHJva2U6IzE4MTgxODtzdHJva2Utd2lkdGg6MC41OyIgd2lkdGg9IjIzNiIgeD0iMzI1LjUiIHk9IjciLz48ZWxsaXBzZSBjeD0iNDE4LjI1IiBjeT0iMjMiIGZpbGw9IiNBREQxQjIiIHJ4PSIxMSIgcnk9IjExIiBzdHlsZT0ic3Ryb2tlOiMxODE4MTg7c3Ryb2tlLXdpZHRoOjE7Ii8+PHBhdGggZD0iTTQxNS44NzUsMjcuMjUgTDQxNS44NzUsMjkgTDQyMC44MTI1LDI5IEw0MjAuODEyNSwyNy4yNSBMNDE1Ljg3NSwyNy4yNSBaIE00MTYuNTYyNSwyNy45Mzc1IFE0MTYuNTYyNSwyNy45Mzc1IDQxNi41NjI1LDE4Ljc1IEw0MTQuODEyNSwxOC43NSBRNDE0LjgxMjUsMTguNzUgNDE0LjgxMjUsMjcuOTM3NSBMNDE2LjU2MjUsMjcuOTM3NSBaIE00MjAuMTI1LDI3LjkzNzUgTDQyMS44NzUsMjcuOTM3NSBRNDIxLjg3NSwyNy45Mzc1IDQyMS44NzUsMjUuMTI1IEw0MjAuMTI1LDI1LjEyNSBRNDIwLjEyNSwyNS4xMjUgNDIwLjEyNSwyNy45Mzc1IFogTTQyMC4xMjUsMTguNzUgUTQyMC4xMjUsMTguNzUgNDIwLjEyNSwyMS41NjI1IEw0MjEuODc1LDIxLjU2MjUgUTQyMS44NzUsMjEuNTYyNSA0MjEuODc1LDE4Ljc1IEw0MjAuMTI1LDE4Ljc1IFogTTQxNS44NzUsMTkuNDM3NSBMNDIwLjgxMjUsMTkuNDM3NSBMNDIwLjgxMjUsMTcuNjg3NSBMNDE1Ljg3NSwxNy42ODc1IEw0MTUuODc1LDE5LjQzNzUgWiAiIGZpbGw9IiMwMDAwMDAiLz48dGV4dCBmaWxsPSIjMDAwMDAwIiBmb250LWZhbWlseT0ic2Fucy1zZXJpZiIgZm9udC1zaXplPSIxNCIgbGVuZ3RoQWRqdXN0PSJzcGFjaW5nIiB0ZXh0TGVuZ3RoPSI0MiIgeD0iNDM4Ljc1IiB5PSIyOC43NDIyIj5UaWNrZXQ8L3RleHQ+PGxpbmUgc3R5bGU9InN0cm9rZTojMTgxODE4O3N0cm9rZS13aWR0aDowLjU7IiB4MT0iMzI2LjUiIHgyPSI1NjAuNSIgeTE9IjM5IiB5Mj0iMzkiLz48dGV4dCBmaWxsPSIjMDAwMDAwIiBmb250LWZhbWlseT0ic2Fucy1zZXJpZiIgZm9udC1zaXplPSIxNCIgbGVuZ3RoQWRqdXN0PSJzcGFjaW5nIiB0ZXh0TGVuZ3RoPSIxNDAiIHg9IjMzMS41IiB5PSI1Ni4yMzQ0Ij4rdGlja2V0X2lkOiBJbnQgJiMxNzE7UEsmIzE4Nzs8L3RleHQ+PHRleHQgZmlsbD0iIzAwMDAwMCIgZm9udC1mYW1pbHk9InNhbnMtc2VyaWYiIGZvbnQtc2l6ZT0iMTQiIGxlbmd0aEFkanVzdD0ic3BhY2luZyIgdGV4dExlbmd0aD0iMTc1IiB4PSIzMzEuNSIgeT0iNzEuMjE4OCI+K2RyaXZlcl9saWNlbnNlIDogVkFSQ0hBUjwvdGV4dD48dGV4dCBmaWxsPSIjMDAwMDAwIiBmb250LWZhbWlseT0ic2Fucy1zZXJpZiIgZm9udC1zaXplPSIxNCIgbGVuZ3RoQWRqdXN0PSJzcGFjaW5nIiB0ZXh0TGVuZ3RoPSIxNDciIHg9IjMzMS41IiB5PSI4Ni4yMDMxIj4rdGlja2V0X3R5cGU6IFZBUkNIQVI8L3RleHQ+PHRleHQgZmlsbD0iIzAwMDAwMCIgZm9udC1mYW1pbHk9InNhbnMtc2VyaWYiIGZvbnQtc2l6ZT0iMTQiIGxlbmd0aEFkanVzdD0ic3BhY2luZyIgdGV4dExlbmd0aD0iMjI0IiB4PSIzMzEuNSIgeT0iMTAxLjE4NzUiPit0aWNrZXRfZGV0YWlsczogdGV4dCB7bnVsbGFibGV9PC90ZXh0Pjx0ZXh0IGZpbGw9IiMwMDAwMDAiIGZvbnQtZmFtaWx5PSJzYW5zLXNlcmlmIiBmb250LXNpemU9IjE0IiBsZW5ndGhBZGp1c3Q9InNwYWNpbmciIHRleHRMZW5ndGg9IjE4MiIgeD0iMzMxLjUiIHk9IjExNi4xNzE5Ij4raXNzdWVkX2J5X2JhZGdlIDogVkFSQ0hBUjwvdGV4dD48dGV4dCBmaWxsPSIjMDAwMDAwIiBmb250LWZhbWlseT0ic2Fucy1zZXJpZiIgZm9udC1zaXplPSIxNCIgbGVuZ3RoQWRqdXN0PSJzcGFjaW5nIiB0ZXh0TGVuZ3RoPSIxNzUiIHg9IjMzMS41IiB5PSIxMzEuMTU2MyI+K2lzc3VlZF9ieV9uYW1lIDogVkFSQ0hBUjwvdGV4dD48dGV4dCBmaWxsPSIjMDAwMDAwIiBmb250LWZhbWlseT0ic2Fucy1zZXJpZiIgZm9udC1zaXplPSIxNCIgbGVuZ3RoQWRqdXN0PSJzcGFjaW5nIiB0ZXh0TGVuZ3RoPSIxNjEiIHg9IjMzMS41IiB5PSIxNDYuMTQwNiI+K2lzc3VlX2RhdGUgOiB0aW1lc3RhbXA8L3RleHQ+PGxpbmUgc3R5bGU9InN0cm9rZTojMTgxODE4O3N0cm9rZS13aWR0aDowLjU7IiB4MT0iMzI2LjUiIHgyPSI1NjAuNSIgeTE9IjE1MS44OTA2IiB5Mj0iMTUxLjg5MDYiLz48dGV4dCBmaWxsPSIjMDAwMDAwIiBmb250LWZhbWlseT0ic2Fucy1zZXJpZiIgZm9udC1zaXplPSIxNCIgbGVuZ3RoQWRqdXN0PSJzcGFjaW5nIiB0ZXh0TGVuZ3RoPSI4NCIgeD0iMzMxLjUiIHk9IjE2OS4xMjUiPitzYXZlRHJhZnQoKTwvdGV4dD48dGV4dCBmaWxsPSIjMDAwMDAwIiBmb250LWZhbWlseT0ic2Fucy1zZXJpZiIgZm9udC1zaXplPSIxNCIgbGVuZ3RoQWRqdXN0PSJzcGFjaW5nIiB0ZXh0TGVuZ3RoPSIxMDUiIHg9IjMzMS41IiB5PSIxODQuMTA5NCI+K3N1Ym1pdFRpY2tldCgpPC90ZXh0Pjx0ZXh0IGZpbGw9IiMwMDAwMDAiIGZvbnQtZmFtaWx5PSJzYW5zLXNlcmlmIiBmb250LXNpemU9IjE0IiBsZW5ndGhBZGp1c3Q9InNwYWNpbmciIHRleHRMZW5ndGg9IjEwNSIgeD0iMzMxLjUiIHk9IjE5OS4wOTM4Ij4rdmFsaWRhdGVEYXRhKCk8L3RleHQ+PC9nPjwhLS1jbGFzcyBDYXItLT48ZyBjbGFzcz0iZW50aXR5IiBkYXRhLWVudGl0eT0iQ2FyIiBkYXRhLXNvdXJjZS1saW5lPSIzNSIgZGF0YS11aWQ9ImVudDAwMDUiIGlkPSJlbnRpdHlfQ2FyIj48cmVjdCBmaWxsPSIjRjFGMUYxIiBoZWlnaHQ9IjIxMi44MjgxIiByeD0iMi41IiByeT0iMi41IiBzdHlsZT0ic3Ryb2tlOiMxODE4MTg7c3Ryb2tlLXdpZHRoOjAuNTsiIHdpZHRoPSIyNTciIHg9Ijc3MiIgeT0iMTgzLjUiLz48ZWxsaXBzZSBjeD0iODg1Ljc1IiBjeT0iMTk5LjUiIGZpbGw9IiNBREQxQjIiIHJ4PSIxMSIgcnk9IjExIiBzdHlsZT0ic3Ryb2tlOiMxODE4MTg7c3Ryb2tlLXdpZHRoOjE7Ii8+PHBhdGggZD0iTTg4My4zNzUsMjAzLjc1IEw4ODMuMzc1LDIwNS41IEw4ODguMzEyNSwyMDUuNSBMODg4LjMxMjUsMjAzLjc1IEw4ODMuMzc1LDIwMy43NSBaIE04ODQuMDYyNSwyMDQuNDM3NSBRODg0LjA2MjUsMjA0LjQzNzUgODg0LjA2MjUsMTk1LjI1IEw4ODIuMzEyNSwxOTUuMjUgUTg4Mi4zMTI1LDE5NS4yNSA4ODIuMzEyNSwyMDQuNDM3NSBMODg0LjA2MjUsMjA0LjQzNzUgWiBNODg3LjYyNSwyMDQuNDM3NSBMODg5LjM3NSwyMDQuNDM3NSBRODg5LjM3NSwyMDQuNDM3NSA4ODkuMzc1LDIwMS42MjUgTDg4Ny42MjUsMjAxLjYyNSBRODg3LjYyNSwyMDEuNjI1IDg4Ny42MjUsMjA0LjQzNzUgWiBNODg3LjYyNSwxOTUuMjUgUTg4Ny42MjUsMTk1LjI1IDg4Ny42MjUsMTk4LjA2MjUgTDg4OS4zNzUsMTk4LjA2MjUgUTg4OS4zNzUsMTk4LjA2MjUgODg5LjM3NSwxOTUuMjUgTDg4Ny42MjUsMTk1LjI1IFogTTg4My4zNzUsMTk1LjkzNzUgTDg4OC4zMTI1LDE5NS45Mzc1IEw4ODguMzEyNSwxOTQuMTg3NSBMODgzLjM3NSwxOTQuMTg3NSBMODgzLjM3NSwxOTUuOTM3NSBaICIgZmlsbD0iIzAwMDAwMCIvPjx0ZXh0IGZpbGw9IiMwMDAwMDAiIGZvbnQtZmFtaWx5PSJzYW5zLXNlcmlmIiBmb250LXNpemU9IjE0IiBsZW5ndGhBZGp1c3Q9InNwYWNpbmciIHRleHRMZW5ndGg9IjIxIiB4PSI5MDYuMjUiIHk9IjIwNS4yNDIyIj5DYXI8L3RleHQ+PGxpbmUgc3R5bGU9InN0cm9rZTojMTgxODE4O3N0cm9rZS13aWR0aDowLjU7IiB4MT0iNzczIiB4Mj0iMTAyOCIgeTE9IjIxNS41IiB5Mj0iMjE1LjUiLz48dGV4dCBmaWxsPSIjMDAwMDAwIiBmb250LWZhbWlseT0ic2Fucy1zZXJpZiIgZm9udC1zaXplPSIxNCIgbGVuZ3RoQWRqdXN0PSJzcGFjaW5nIiB0ZXh0TGVuZ3RoPSI5MSIgeD0iNzc4IiB5PSIyMzIuNzM0NCI+K2lkOiBJbnQgJiMxNzE7UEsmIzE4Nzs8L3RleHQ+PHRleHQgZmlsbD0iIzAwMDAwMCIgZm9udC1mYW1pbHk9InNhbnMtc2VyaWYiIGZvbnQtc2l6ZT0iMTQiIGxlbmd0aEFkanVzdD0ic3BhY2luZyIgdGV4dExlbmd0aD0iMTYxIiB4PSI3NzgiIHk9IjI0Ny43MTg4Ij4rbGljZW5zZV9wbGF0ZTogVkFSQ0hBUjwvdGV4dD48dGV4dCBmaWxsPSIjMDAwMDAwIiBmb250LWZhbWlseT0ic2Fucy1zZXJpZiIgZm9udC1zaXplPSIxNCIgbGVuZ3RoQWRqdXN0PSJzcGFjaW5nIiB0ZXh0TGVuZ3RoPSIyMTciIHg9Ijc3OCIgeT0iMjYyLjcwMzEiPitvd25lcl9uYW1lOiBWQVJDSEFSIHtudWxsYWJsZX08L3RleHQ+PHRleHQgZmlsbD0iIzAwMDAwMCIgZm9udC1mYW1pbHk9InNhbnMtc2VyaWYiIGZvbnQtc2l6ZT0iMTQiIGxlbmd0aEFkanVzdD0ic3BhY2luZyIgdGV4dExlbmd0aD0iMjM4IiB4PSI3NzgiIHk9IjI3Ny42ODc1Ij4raW5zcGVjdGlvbl9zdGFydDogZGF0ZSB7bnVsbGFibGV9PC90ZXh0Pjx0ZXh0IGZpbGw9IiMwMDAwMDAiIGZvbnQtZmFtaWx5PSJzYW5zLXNlcmlmIiBmb250LXNpemU9IjE0IiBsZW5ndGhBZGp1c3Q9InNwYWNpbmciIHRleHRMZW5ndGg9IjIyNCIgeD0iNzc4IiB5PSIyOTIuNjcxOSI+K2luc3BlY3Rpb25fZW5kOiBkYXRlIHtudWxsYWJsZX08L3RleHQ+PHRleHQgZmlsbD0iIzAwMDAwMCIgZm9udC1mYW1pbHk9InNhbnMtc2VyaWYiIGZvbnQtc2l6ZT0iMTQiIGxlbmd0aEFkanVzdD0ic3BhY2luZyIgdGV4dExlbmd0aD0iMjAzIiB4PSI3NzgiIHk9IjMwNy42NTYzIj4rdGF4X3BhaWQ6IFZBUkNIQVIge251bGxhYmxlfTwvdGV4dD48dGV4dCBmaWxsPSIjMDAwMDAwIiBmb250LWZhbWlseT0ic2Fucy1zZXJpZiIgZm9udC1zaXplPSIxNCIgbGVuZ3RoQWRqdXN0PSJzcGFjaW5nIiB0ZXh0TGVuZ3RoPSIyMTciIHg9Ijc3OCIgeT0iMzIyLjY0MDYiPitzdG9sZW5fY2FyOiBWQVJDSEFSIHtudWxsYWJsZX08L3RleHQ+PHRleHQgZmlsbD0iIzAwMDAwMCIgZm9udC1mYW1pbHk9InNhbnMtc2VyaWYiIGZvbnQtc2l6ZT0iMTQiIGxlbmd0aEFkanVzdD0ic3BhY2luZyIgdGV4dExlbmd0aD0iMjQ1IiB4PSI3NzgiIHk9IjMzNy42MjUiPittYWtlX2FuZF9tb2RlbDogVkFSQ0hBUiB7bnVsbGFibGV9PC90ZXh0Pjx0ZXh0IGZpbGw9IiMwMDAwMDAiIGZvbnQtZmFtaWx5PSJzYW5zLXNlcmlmIiBmb250LXNpemU9IjE0IiBsZW5ndGhBZGp1c3Q9InNwYWNpbmciIHRleHRMZW5ndGg9IjE4MiIgeD0iNzc4IiB5PSIzNTIuNjA5NCI+K2NvbG9yOiBWQVJDSEFSIHtudWxsYWJsZX08L3RleHQ+PHRleHQgZmlsbD0iIzAwMDAwMCIgZm9udC1mYW1pbHk9InNhbnMtc2VyaWYiIGZvbnQtc2l6ZT0iMTQiIGxlbmd0aEFkanVzdD0ic3BhY2luZyIgdGV4dExlbmd0aD0iMjQ1IiB4PSI3NzgiIHk9IjM2Ny41OTM4Ij4rZHJpdmVyX2xpY2Vuc2U6IFZBUkNIQVIge251bGxhYmxlfTwvdGV4dD48dGV4dCBmaWxsPSIjMDAwMDAwIiBmb250LWZhbWlseT0ic2Fucy1zZXJpZiIgZm9udC1zaXplPSIxNCIgbGVuZ3RoQWRqdXN0PSJzcGFjaW5nIiB0ZXh0TGVuZ3RoPSIyMDMiIHg9Ijc3OCIgeT0iMzgyLjU3ODEiPithZGRyZXNzIDogVkFSQ0hBUiB7bnVsbGFibGV9PC90ZXh0PjxsaW5lIHN0eWxlPSJzdHJva2U6IzE4MTgxODtzdHJva2Utd2lkdGg6MC41OyIgeDE9Ijc3MyIgeDI9IjEwMjgiIHkxPSIzODguMzI4MSIgeTI9IjM4OC4zMjgxIi8+PC9nPjwhLS1saW5rIFBvbGljZU9mZmljZXIgdG8gVGlja2V0LS0+PGcgY2xhc3M9ImxpbmsiIGRhdGEtZW50aXR5LTE9IlBvbGljZU9mZmljZXIiIGRhdGEtZW50aXR5LTI9IlRpY2tldCIgZGF0YS1zb3VyY2UtbGluZT0iNDkiIGRhdGEtdWlkPSJsbms2IiBpZD0ibGlua19Qb2xpY2VPZmZpY2VyX1RpY2tldCI+PHBhdGggY29kZUxpbmU9IjQ5IiBkPSJNMTgwLjA4LDEwNiBDMjIzLjg1LDEwNiAyNzcuNzksMTA2IDMyNS4zNiwxMDYiIGZpbGw9Im5vbmUiIGlkPSJQb2xpY2VPZmZpY2VyLVRpY2tldCIgc3R5bGU9InN0cm9rZTojMTgxODE4O3N0cm9rZS13aWR0aDoxOyIvPjx0ZXh0IGZpbGw9IiMwMDAwMDAiIGZvbnQtZmFtaWx5PSJzYW5zLXNlcmlmIiBmb250LXNpemU9IjEzIiBsZW5ndGhBZGp1c3Q9InNwYWNpbmciIHRleHRMZW5ndGg9IjQ1LjUiIHg9IjIxMSIgeT0iMTA0LjI4OTEiPkNyZWF0ZXM8L3RleHQ+PC9nPjwhLS1saW5rIFRpY2tldCB0byBDYXItLT48ZyBjbGFzcz0ibGluayIgZGF0YS1lbnRpdHktMT0iVGlja2V0IiBkYXRhLWVudGl0eS0yPSJDYXIiIGRhdGEtc291cmNlLWxpbmU9IjUwIiBkYXRhLXVpZD0ibG5rNyIgaWQ9ImxpbmtfVGlja2V0X0NhciI+PHBhdGggY29kZUxpbmU9IjUwIiBkPSJNNTYxLjY3LDE1My4zOCBDNjI2LjA1LDE3OS40MiA3MDUuOTgsMjExLjc0IDc3MS45MywyMzguNDEiIGZpbGw9Im5vbmUiIGlkPSJUaWNrZXQtQ2FyIiBzdHlsZT0ic3Ryb2tlOiMxODE4MTg7c3Ryb2tlLXdpZHRoOjE7Ii8+PHRleHQgZmlsbD0iIzAwMDAwMCIgZm9udC1mYW1pbHk9InNhbnMtc2VyaWYiIGZvbnQtc2l6ZT0iMTMiIGxlbmd0aEFkanVzdD0ic3BhY2luZyIgdGV4dExlbmd0aD0iNjUiIHg9IjY1My41IiB5PSIxODAuMjg5MSI+SXNzdWVkIGZvcjwvdGV4dD48L2c+PCEtLWxpbmsgTm9ybWFsVXNlciB0byBDYXItLT48ZyBjbGFzcz0ibGluayIgZGF0YS1lbnRpdHktMT0iTm9ybWFsVXNlciIgZGF0YS1lbnRpdHktMj0iQ2FyIiBkYXRhLXNvdXJjZS1saW5lPSI1MSIgZGF0YS11aWQ9ImxuazgiIGlkPSJsaW5rX05vcm1hbFVzZXJfQ2FyIj48cGF0aCBjb2RlTGluZT0iNTEiIGQ9Ik02MDAuMTMsMzA3Ljc2IEM2NTYuMSwzMDQuNDQgNzE4LjU1LDMwMC43NCA3NzEuODYsMjk3LjU3IiBmaWxsPSJub25lIiBpZD0iTm9ybWFsVXNlci1DYXIiIHN0eWxlPSJzdHJva2U6IzE4MTgxODtzdHJva2Utd2lkdGg6MTsiLz48dGV4dCBmaWxsPSIjMDAwMDAwIiBmb250LWZhbWlseT0ic2Fucy1zZXJpZiIgZm9udC1zaXplPSIxMyIgbGVuZ3RoQWRqdXN0PSJzcGFjaW5nIiB0ZXh0TGVuZ3RoPSIxMTAuNSIgeD0iNjMxIiB5PSIyOTcuMjg5MSI+UmVwb3J0cyBhcyBTdG9sZW48L3RleHQ+PC9nPjwhLS1TUkM9W1ZMSERRLUNtNEJ0eEx1WVNrZkgycG80S0diZ2VNUGU2OXpjaDY1bFpoZVctWjNIRXNvdHp4cGtudXBmVkpXdzFwN2tJdGRpcDR1Q2IyVjhZd0JVXzk5R0VNOTNzQmVhUnhJZThPNExYOENPZktUMXZKUFdNdFl0ckZuSnRJVDhXT2s2REJsMnJCRmF4WUF6NHlFVk1XS0tuNWQtY3NVbnZjZWNzYzhEd0ctYmdjcEZuMXNvbktYalN3TUEzVEZFaGhHSUNqU043MEVMMWdWQTFia0dEa1hhNEJkenRBa08tTTMzaHM0bEdZano4N09kOVBGN3h1VTZJaGhRNjVoSmZqS3Vjd3RkUXlJay0gLXpxN1ROOWF2elo1U29fWW96TjZHNnhta29LTTBPNUdJSTBjYVJPTzJNcDVSeXBNTVZPcU55YkwtbEFxTjRyVjVqc0JMcG9zLU5KLWdGYWJqSmZ0Z09CVU9mMXhiUVQtem1WZml5QkJZNEJZSDI4Qm5XeXdpd0haaERiSF9ZY1JWZnhVdGlFTmljdkdnSllKbXBuUUJDQnNrRHNucGdzY3V3ZE9XajZ4dXV6MFM5V0RIekt0X1pvSGhjNkx1UkNkY2xveHV4MXNRZVZ4ZzVzaXNpc0doM1pHTTNHVWhqM0dnRzRJbU9VaUdBbFhyc0JKVkxiMDZFUE9zQTA0ZndKcjJpc0wyVko2TnhkY1U1STZVUTBLQnNJeUZFaFNYVURfV1JreFJiWjdPWkhoVFkyRWFkczltTHN0NjRjUk1INmIzd0ZhTzg1eEdqT2lHbkdHSFJpSGVfeTBdLS0+PC9nPjwvc3ZnPg==;" parent="EbAcGEdWt47gAEx_lpvl-12" vertex="1">
            <mxGeometry width="1036" height="403" as="geometry" />
          </mxCell>
        </UserObject>
        <mxCell id="8bzAcpJlCO16CAiFJlRz-3" value="1..*" style="text;strokeColor=none;align=center;fillColor=none;html=1;verticalAlign=middle;whiteSpace=wrap;rounded=0;" parent="EbAcGEdWt47gAEx_lpvl-12" vertex="1">
          <mxGeometry x="170" y="70" width="60" height="30" as="geometry" />
        </mxCell>
        <mxCell id="8bzAcpJlCO16CAiFJlRz-6" value="0..*" style="text;strokeColor=none;align=center;fillColor=none;html=1;verticalAlign=middle;whiteSpace=wrap;rounded=0;" parent="EbAcGEdWt47gAEx_lpvl-12" vertex="1">
          <mxGeometry x="280" y="70" width="60" height="30" as="geometry" />
        </mxCell>
        <mxCell id="EbAcGEdWt47gAEx_lpvl-2" value="1..*" style="text;strokeColor=none;align=center;fillColor=none;html=1;verticalAlign=middle;whiteSpace=wrap;rounded=0;" vertex="1" parent="EbAcGEdWt47gAEx_lpvl-12">
          <mxGeometry x="720" y="196.5" width="60" height="30" as="geometry" />
        </mxCell>
        <mxCell id="EbAcGEdWt47gAEx_lpvl-3" value="1..*" style="text;strokeColor=none;align=center;fillColor=none;html=1;verticalAlign=middle;whiteSpace=wrap;rounded=0;" vertex="1" parent="EbAcGEdWt47gAEx_lpvl-12">
          <mxGeometry x="590" y="270" width="60" height="30" as="geometry" />
        </mxCell>
        <mxCell id="EbAcGEdWt47gAEx_lpvl-4" value="0..*" style="text;strokeColor=none;align=center;fillColor=none;html=1;verticalAlign=middle;whiteSpace=wrap;rounded=0;" vertex="1" parent="EbAcGEdWt47gAEx_lpvl-12">
          <mxGeometry x="550" y="130" width="60" height="30" as="geometry" />
        </mxCell>
        <mxCell id="EbAcGEdWt47gAEx_lpvl-5" value="" style="shape=mxgraph.arrows2.wedgeArrow;html=1;bendable=0;startWidth=6;fillColor=#E4E4E4;defaultFillColor=invert;defaultGradientColor=invert;rounded=0;" edge="1" parent="EbAcGEdWt47gAEx_lpvl-12">
          <mxGeometry width="100" height="100" relative="1" as="geometry">
            <mxPoint x="230" y="82.58" as="sourcePoint" />
            <mxPoint x="250" y="82.58" as="targetPoint" />
          </mxGeometry>
        </mxCell>
        <mxCell id="EbAcGEdWt47gAEx_lpvl-6" value="" style="shape=mxgraph.arrows2.wedgeArrow;html=1;bendable=0;startWidth=6;fillColor=#E4E4E4;defaultFillColor=invert;defaultGradientColor=invert;rounded=0;" edge="1" parent="EbAcGEdWt47gAEx_lpvl-12">
          <mxGeometry width="100" height="100" relative="1" as="geometry">
            <mxPoint x="670" y="152.67" as="sourcePoint" />
            <mxPoint x="690" y="157.33" as="targetPoint" />
          </mxGeometry>
        </mxCell>
        <mxCell id="EbAcGEdWt47gAEx_lpvl-7" value="" style="shape=mxgraph.arrows2.wedgeArrow;html=1;bendable=0;startWidth=6;fillColor=#E4E4E4;defaultFillColor=invert;defaultGradientColor=invert;rounded=0;" edge="1" parent="EbAcGEdWt47gAEx_lpvl-12">
          <mxGeometry width="100" height="100" relative="1" as="geometry">
            <mxPoint x="670" y="270" as="sourcePoint" />
            <mxPoint x="690" y="260" as="targetPoint" />
          </mxGeometry>
        </mxCell>
        <mxCell id="EbAcGEdWt47gAEx_lpvl-9" value="0..*" style="text;strokeColor=none;align=center;fillColor=none;html=1;verticalAlign=middle;whiteSpace=wrap;rounded=0;" vertex="1" parent="EbAcGEdWt47gAEx_lpvl-12">
          <mxGeometry x="720" y="270" width="60" height="30" as="geometry" />
        </mxCell>
      </root>
    </mxGraphModel>
  </diagram>
</mxfile>
